<svg width="47" height="46" viewBox="0 0 47 46" fill="none" xmlns="http://www.w3.org/2000/svg">
<g clip-path="url(#clip0)">
<path d="M23.5 3.07912C26.1732 3.07378 28.821 3.58678 31.2905 4.5885C33.76 5.59022 36.0023 7.06082 37.8879 8.91537C39.7831 10.7612 41.2859 12.9562 42.3094 15.3737C43.3329 17.7912 43.8569 20.3832 43.851 23C43.8572 25.6173 43.3335 28.2098 42.3099 30.6278C41.2864 33.0458 39.7835 35.2413 37.8879 37.0875C36.0018 38.941 33.7593 40.4106 31.2898 41.4113C28.8203 42.412 26.1728 42.9241 23.5 42.918C20.8268 42.9234 18.179 42.4104 15.7095 41.4086C13.24 40.4069 10.9977 38.9363 9.11213 37.0817C7.21725 35.2363 5.71468 33.0417 4.69118 30.6247C3.66769 28.2078 3.14354 25.6163 3.149 23C3.14276 20.3827 3.66653 17.7902 4.69005 15.3722C5.71357 12.9542 7.21655 10.7587 9.11213 8.9125C10.9982 7.05898 13.2407 5.58944 15.7102 4.58872C18.1797 3.58799 20.8272 3.0759 23.5 3.082V3.07912ZM23.5 4.49842e-08C17.267 0.000381294 11.2895 2.42411 6.88238 6.73798C2.47528 11.0519 -0.000389491 16.9025 4.59621e-08 23.0029C0.000389583 29.1032 2.4768 34.9536 6.88446 39.2669C11.2921 43.5803 17.27 46.0033 23.5029 46.0029C29.7359 46.0025 35.7135 43.5788 40.1206 39.2649C44.5277 34.951 47.0033 29.1004 47.0029 23C47.0025 16.8996 44.5261 11.0493 40.1185 6.73595C35.7108 2.42261 29.733 -0.000381204 23.5 4.49842e-08Z" fill="#0B4870"/>
<path d="M34.78 21.459H25.0716V11.9629C25.0716 11.5542 24.9057 11.1622 24.6104 10.8732C24.3151 10.5842 23.9146 10.4219 23.4971 10.4219C23.0795 10.4219 22.679 10.5842 22.3837 10.8732C22.0884 11.1622 21.9226 11.5542 21.9226 11.9629V21.459H12.2229C11.8054 21.459 11.4049 21.6214 11.1096 21.9103C10.8143 22.1993 10.6484 22.5913 10.6484 23C10.6484 23.4087 10.8143 23.8007 11.1096 24.0897C11.4049 24.3786 11.8054 24.541 12.2229 24.541H21.9255V34.0371C21.9255 34.4458 22.0914 34.8378 22.3867 35.1268C22.6819 35.4158 23.0824 35.5781 23.5 35.5781C23.9176 35.5781 24.3181 35.4158 24.6133 35.1268C24.9086 34.8378 25.0745 34.4458 25.0745 34.0371V24.541H34.7771C35.1946 24.541 35.5951 24.3786 35.8904 24.0897C36.1857 23.8007 36.3516 23.4087 36.3516 23C36.3516 22.5913 36.1857 22.1993 35.8904 21.9103C35.5951 21.6214 35.1946 21.459 34.7771 21.459H34.78Z" fill="#0B4870"/>
</g>
<defs>
<clipPath id="clip0">
<rect width="47" height="46" fill="white"/>
</clipPath>
</defs>
</svg>
