<svg width="43" height="40" viewBox="0 0 43 40" fill="none" xmlns="http://www.w3.org/2000/svg">
<path d="M21.5504 8.3125L37.1841 31.6758H6.17286L21.5504 8.3125ZM21.5504 5.92969C20.7819 5.92969 19.7573 6.40625 19.5012 7.12109L3.86749 30.4844C2.84288 32.1523 4.12365 34.0586 5.91671 34.0586H36.9279C38.9772 34.0586 40.2579 31.9141 38.9772 30.4844L23.5996 7.12109C23.3435 6.40625 22.3189 5.92969 21.5504 5.92969Z" fill="#0B4870"/>
<path d="M21.5504 25.4766C20.7819 25.4766 20.2696 25 20.2696 24.2852V17.1328C20.2696 16.418 20.7819 15.9414 21.5504 15.9414C22.3189 15.9414 22.8312 16.418 22.8312 17.1328V24.2852C22.8312 25 22.3189 25.4766 21.5504 25.4766ZM20.2654 28.5742C20.2654 29.2344 20.8407 29.7656 21.5462 29.7656C22.2559 29.7656 22.827 29.2305 22.827 28.5742C22.827 27.9141 22.2517 27.3828 21.5462 27.3828C20.8407 27.3828 20.2654 27.918 20.2654 28.5742Z" fill="#0B4870"/>
</svg>
