<svg width="35" height="33" viewBox="0 0 35 33" fill="none" xmlns="http://www.w3.org/2000/svg">
<path d="M17.71 30.492C9.59001 30.492 2.97501 24.255 2.97501 16.599C2.97501 8.91001 9.59001 2.673 17.71 2.673C25.83 2.673 32.445 8.91001 32.445 16.599C32.445 24.255 25.83 30.492 17.71 30.492ZM17.71 4.917C10.885 4.917 5.32001 10.164 5.32001 16.599C5.32001 23.034 10.885 28.281 17.71 28.281C24.535 28.281 30.1 23.034 30.1 16.599C30.1 10.131 24.535 4.917 17.71 4.917Z" fill="#0B4870"/>
<path d="M22.995 18.249H18.165C16.94 18.249 15.925 17.292 15.925 16.137V9.33901C15.925 8.71201 16.45 8.21701 17.115 8.21701C17.78 8.21701 18.305 8.71201 18.305 9.33901V16.005H23.03C23.695 16.005 24.22 16.5 24.22 17.127C24.185 17.754 23.66 18.249 22.995 18.249Z" fill="#0B4870"/>
<path d="M2.975 8.81101C2.52 8.81101 2.065 8.64601 1.715 8.31601C1.015 7.65601 1.015 6.60001 1.715 5.97301L5.25 2.60701C5.95 1.94701 7.07 1.94701 7.735 2.60701C8.435 3.26701 8.435 4.32301 7.735 4.95001L4.2 8.31601C3.85 8.64601 3.43 8.81101 2.975 8.81101ZM32.445 8.81101C31.99 8.81101 31.535 8.64601 31.185 8.31601L27.65 4.98301C26.95 4.32301 26.95 3.26701 27.65 2.64001C28.35 1.98001 29.47 1.98001 30.135 2.64001L33.705 5.94001C34.405 6.60001 34.405 7.65601 33.705 8.28301C33.355 8.64601 32.9 8.81101 32.445 8.81101Z" fill="#0B4870"/>
</svg>
