<svg width="33" height="33" viewBox="0 0 33 33" fill="none" xmlns="http://www.w3.org/2000/svg">
<path d="M15.8889 0C13.3242 0.0350259 10.8072 0.697682 8.5578 1.93005C6.30839 3.16242 4.39507 4.92698 2.98506 7.06951V4.71257C3.01986 4.55102 3.0137 4.38333 2.96716 4.22476C2.92062 4.06619 2.83516 3.92178 2.71857 3.80466C2.60198 3.68754 2.45795 3.60144 2.29959 3.55418C2.14123 3.50693 1.97357 3.50003 1.81186 3.5341C1.6178 3.57137 1.43312 3.64697 1.26862 3.75649C1.10413 3.86601 0.963139 4.00723 0.853892 4.1719C0.744645 4.33657 0.66934 4.52137 0.632385 4.7155C0.59543 4.90963 0.597567 5.10918 0.638671 5.30247V10.3093C0.599487 10.4856 0.600233 10.6683 0.640855 10.8442C0.681477 11.0202 0.760945 11.1848 0.873436 11.326C0.985926 11.4672 1.12859 11.5814 1.29097 11.6604C1.45335 11.7393 1.63133 11.7809 1.81186 11.7821H7.67651C7.98206 11.7719 8.27168 11.6433 8.48421 11.4235C8.69674 11.2038 8.81555 10.91 8.81555 10.6043C8.81555 10.2985 8.69674 10.0048 8.48421 9.78503C8.27168 9.56526 7.98206 9.43669 7.67651 9.42646H4.15825C6.57326 5.9953 11.3888 2.35563 15.8889 2.35695C19.6053 2.40772 23.1523 3.91971 25.7625 6.56577C28.3726 9.21183 29.836 12.7792 29.836 16.496C29.836 20.2128 28.3726 23.7801 25.7625 26.4262C23.1523 29.0722 19.6053 30.5842 15.8889 30.635C13.0211 30.6348 10.2335 29.6892 7.95749 27.9445C5.68152 26.1998 4.04423 23.7535 3.29914 20.9842L3.27803 20.9921C3.19467 20.7178 3.02652 20.4769 2.79772 20.304C2.56892 20.1312 2.29124 20.0353 2.00454 20.0301C1.82193 20.0332 1.64172 20.0722 1.47422 20.145C1.30672 20.2178 1.15521 20.3229 1.02835 20.4543C0.901495 20.5857 0.801785 20.7408 0.73492 20.9107C0.668056 21.0807 0.635349 21.2622 0.638671 21.4448C0.645203 21.5797 0.670977 21.713 0.715212 21.8407H0.700695C0.709933 21.875 0.725769 21.9053 0.735007 21.9396C0.744245 21.974 0.752163 21.9938 0.76272 22.0215C1.70947 25.2692 3.70955 28.1097 6.44801 30.0958C9.18647 32.0819 12.5077 33.1008 15.8889 32.992C20.2639 32.992 24.4597 31.254 27.5533 28.1604C30.6469 25.0668 32.3848 20.871 32.3848 16.496C32.3848 12.121 30.6469 7.92515 27.5533 4.83156C24.4597 1.73796 20.2639 0 15.8889 0ZM14.9888 9.22059C14.8119 9.22909 14.6389 9.27554 14.4815 9.35679C14.3241 9.43804 14.186 9.5522 14.0766 9.69151C13.9672 9.83082 13.8891 9.99204 13.8475 10.1642C13.8058 10.3364 13.8017 10.5155 13.8354 10.6894V18.3185C13.8351 18.5108 13.8726 18.7014 13.9459 18.8792C14.0192 19.0571 14.1268 19.2188 14.2626 19.355C14.3984 19.4913 14.5597 19.5995 14.7373 19.6734C14.9149 19.7474 15.1053 19.7856 15.2977 19.7859H21.6321C21.807 19.8176 21.9866 19.8114 22.1589 19.7677C22.3311 19.724 22.492 19.6438 22.6306 19.5326C22.7692 19.4214 22.8823 19.2817 22.9623 19.123C23.0423 18.9643 23.0873 18.7903 23.0943 18.6127C23.1086 18.4275 23.0846 18.2414 23.0239 18.0658C22.9631 17.8903 22.8668 17.7292 22.741 17.5925C22.6152 17.4558 22.4626 17.3465 22.2927 17.2713C22.1228 17.1962 21.9393 17.1569 21.7535 17.1558H16.4748V10.5574C16.4695 10.3706 16.4262 10.1868 16.3478 10.0172C16.2693 9.84758 16.1572 9.69567 16.0182 9.57067C15.8793 9.44568 15.7164 9.35019 15.5395 9.29002C15.3625 9.22984 15.1752 9.20622 14.9888 9.22059Z" fill="#0B4870"/>
</svg>
