<svg width="20" height="20" viewBox="0 0 20 20" fill="none" xmlns="http://www.w3.org/2000/svg">
<path d="M10.1092 0.422119C8.15023 0.422119 6.56031 1.97513 6.49265 3.92485H1.92585C1.41845 3.92485 1.0033 4.33694 1.0033 4.84743C1.0033 5.35485 1.41539 5.77003 1.92587 5.77003H2.94378V16.0907C2.94378 18.0281 4.25693 19.6118 5.8807 19.6118H14.1532C15.7739 19.6118 17.0901 18.0373 17.0901 16.0907V5.77618H18.0127C18.5201 5.77618 18.9352 5.36407 18.9352 4.85358C18.9352 4.34616 18.5231 3.93101 18.0127 3.93101H13.7196C13.6611 1.97515 12.0681 0.422139 10.1092 0.422139V0.422119ZM8.22097 3.92485C8.28863 2.9254 9.10359 2.15044 10.1123 2.15044C11.1209 2.15044 11.9359 2.92847 11.9943 3.92485H8.22097ZM5.87761 17.8866C5.30254 17.8866 4.66902 17.1485 4.66902 16.0907V5.77618H15.3587V16.0999C15.3587 17.1547 14.7252 17.8958 14.1501 17.8958H5.87761V17.8866Z" fill="#E31616"/>
<path d="M7.11697 15.6693C7.53826 15.6693 7.88578 15.248 7.88578 14.719V9.29732C7.88578 8.76837 7.54135 8.34705 7.11697 8.34705C6.69564 8.34705 6.34814 8.76837 6.34814 9.29732V14.719C6.34814 15.2449 6.68643 15.6693 7.11697 15.6693ZM9.9001 15.6693C10.3214 15.6693 10.6689 15.248 10.6689 14.719V9.29732C10.6689 8.76837 10.3245 8.34705 9.9001 8.34705C9.47879 8.34705 9.13127 8.76837 9.13127 9.29732V14.719C9.13127 15.2449 9.47879 15.6693 9.9001 15.6693ZM12.8278 15.6693C13.2491 15.6693 13.5966 15.248 13.5966 14.719V9.29732C13.5966 8.76837 13.2521 8.34705 12.8278 8.34705C12.4064 8.34705 12.0589 8.76837 12.0589 9.29732V14.719C12.0589 15.2449 12.3941 15.6693 12.8278 15.6693Z" fill="#E41515"/>
</svg>
