<svg width="33" height="33" viewBox="0 0 33 33" fill="none" xmlns="http://www.w3.org/2000/svg">
<g clip-path="url(#clip0)">
<rect width="33" height="33" fill="white"/>
<path d="M23.1001 27.4312V30.3187C23.1001 31.35 24.3376 31.7625 24.9563 31.1437L29.0813 27.0187C29.7001 26.4 29.2876 25.1625 28.2563 25.1625H25.3688C24.1313 25.1625 23.1001 26.1937 23.1001 27.4312Z" fill="#0B4870"/>
<path d="M27.4311 1.03125H6.39355C5.15605 1.03125 4.33105 1.85625 4.33105 3.09375V30.3188C4.33105 31.35 5.3623 32.3813 6.39355 32.3813H19.5936C20.8311 32.3813 21.6561 31.5562 21.6561 30.3188V25.9875C21.6561 24.9563 22.6873 23.925 23.7186 23.925H27.2248C28.4623 23.925 29.2873 23.1 29.2873 21.8625V2.8875C29.6998 1.85625 28.6686 1.03125 27.4311 1.03125ZM20.6248 17.9438C20.6248 18.5625 20.2123 18.975 19.5936 18.975H10.3123C9.69355 18.975 9.28105 18.5625 9.28105 17.9438V17.7375C9.28105 17.1188 9.69355 16.7063 10.3123 16.7063H19.5936C20.2123 16.7063 20.6248 17.1187 20.6248 17.9438ZM25.1623 12.375C25.1623 12.9937 24.7498 13.4062 24.1311 13.4062H10.3123C9.69355 13.2 9.07481 12.7875 9.07481 12.375V12.1687C9.07481 11.55 9.48731 11.1375 10.1061 11.1375H23.9248C24.7498 11.1375 25.1623 11.55 25.1623 12.375ZM25.1623 6.80625C25.1623 7.425 24.7498 7.8375 24.1311 7.8375H10.3123C9.69355 7.8375 9.28105 7.425 9.28105 6.80625V6.6C9.28105 5.98125 9.69355 5.56875 10.3123 5.56875H24.1311C24.7498 5.56875 25.1623 5.98125 25.1623 6.80625Z" fill="#0B4870"/>
<g clip-path="url(#clip1)">
<path d="M20.6753 31.7199C20.6753 31.8472 20.7156 31.9693 20.7872 32.0593C20.8589 32.1494 20.9561 32.1999 21.0575 32.1999H26.0261C26.0763 32.1999 26.126 32.1875 26.1724 32.1634C26.2187 32.1393 26.2609 32.1039 26.2964 32.0593C26.3318 32.0148 26.36 31.9619 26.3792 31.9036C26.3984 31.8454 26.4083 31.783 26.4083 31.7199V18.2799C26.4083 18.2169 26.3984 18.1545 26.3792 18.0962C26.36 18.038 26.3318 17.9851 26.2964 17.9405C26.2609 17.8959 26.2187 17.8606 26.1724 17.8365C26.126 17.8123 26.0763 17.7999 26.0261 17.7999H21.0575C20.9561 17.7999 20.8589 17.8505 20.7872 17.9405C20.7156 18.0305 20.6753 18.1526 20.6753 18.2799V31.7199ZM24.1151 20.4399C24.1151 20.3126 24.1554 20.1905 24.227 20.1005C24.2987 20.0105 24.3959 19.9599 24.4973 19.9599H24.8795C24.9297 19.9599 24.9794 19.9723 25.0258 19.9965C25.0721 20.0206 25.1143 20.0559 25.1497 20.1005C25.1852 20.1451 25.2134 20.198 25.2326 20.2562C25.2518 20.3145 25.2617 20.3769 25.2617 20.4399V20.9199C25.2617 20.983 25.2518 21.0454 25.2326 21.1036C25.2134 21.1619 25.1852 21.2148 25.1497 21.2593C25.1143 21.3039 25.0721 21.3393 25.0258 21.3634C24.9794 21.3875 24.9297 21.3999 24.8795 21.3999H24.4973C24.4471 21.3999 24.3974 21.3875 24.351 21.3634C24.3047 21.3393 24.2625 21.3039 24.227 21.2593C24.1915 21.2148 24.1634 21.1619 24.1442 21.1036C24.125 21.0454 24.1151 20.983 24.1151 20.9199V20.4399ZM24.1151 23.6799C24.1151 23.5526 24.1554 23.4305 24.227 23.3405C24.2987 23.2505 24.3959 23.1999 24.4973 23.1999H24.8795C24.9297 23.1999 24.9794 23.2123 25.0258 23.2365C25.0721 23.2606 25.1143 23.2959 25.1497 23.3405C25.1852 23.3851 25.2134 23.438 25.2326 23.4962C25.2518 23.5545 25.2617 23.6169 25.2617 23.6799V24.1999C25.2617 24.263 25.2518 24.3254 25.2326 24.3836C25.2134 24.4419 25.1852 24.4948 25.1497 24.5393C25.1143 24.5839 25.0721 24.6193 25.0258 24.6434C24.9794 24.6675 24.9297 24.6799 24.8795 24.6799H24.4973C24.4471 24.6799 24.3974 24.6675 24.351 24.6434C24.3047 24.6193 24.2625 24.5839 24.227 24.5393C24.1915 24.4948 24.1634 24.4419 24.1442 24.3836C24.125 24.3254 24.1151 24.263 24.1151 24.1999V23.6799ZM24.1151 26.9199C24.1151 26.7926 24.1554 26.6705 24.227 26.5805C24.2987 26.4905 24.3959 26.4399 24.4973 26.4399H24.8795C24.9297 26.4399 24.9794 26.4523 25.0258 26.4765C25.0721 26.5006 25.1143 26.5359 25.1497 26.5805C25.1852 26.6251 25.2134 26.678 25.2326 26.7362C25.2518 26.7945 25.2617 26.8569 25.2617 26.9199V27.3999C25.2617 27.463 25.2518 27.5254 25.2326 27.5836C25.2134 27.6419 25.1852 27.6948 25.1497 27.7393C25.1143 27.7839 25.0721 27.8193 25.0258 27.8434C24.9794 27.8675 24.9297 27.8799 24.8795 27.8799H24.4973C24.4471 27.8799 24.3974 27.8675 24.351 27.8434C24.3047 27.8193 24.2625 27.7839 24.227 27.7393C24.1915 27.6948 24.1634 27.6419 24.1442 27.5836C24.125 27.5254 24.1151 27.463 24.1151 27.3999V26.9199ZM21.8219 20.4399C21.8219 20.3126 21.8622 20.1905 21.9338 20.1005C22.0055 20.0105 22.1027 19.9599 22.2041 19.9599H22.5863C22.6877 19.9599 22.7849 20.0105 22.8565 20.1005C22.9282 20.1905 22.9685 20.3126 22.9685 20.4399V20.9199C22.9685 21.0472 22.9282 21.1693 22.8565 21.2593C22.7849 21.3494 22.6877 21.3999 22.5863 21.3999H22.2041C22.1027 21.3999 22.0055 21.3494 21.9338 21.2593C21.8622 21.1693 21.8219 21.0472 21.8219 20.9199V20.4399ZM21.8219 23.6799C21.8219 23.5526 21.8622 23.4305 21.9338 23.3405C22.0055 23.2505 22.1027 23.1999 22.2041 23.1999H22.5863C22.6877 23.1999 22.7849 23.2505 22.8565 23.3405C22.9282 23.4305 22.9685 23.5526 22.9685 23.6799V24.1999C22.9685 24.3272 22.9282 24.4493 22.8565 24.5393C22.7849 24.6294 22.6877 24.6799 22.5863 24.6799H22.2041C22.1027 24.6799 22.0055 24.6294 21.9338 24.5393C21.8622 24.4493 21.8219 24.3272 21.8219 24.1999V23.6799ZM21.8219 26.9199C21.8219 26.7926 21.8622 26.6705 21.9338 26.5805C22.0055 26.4905 22.1027 26.4399 22.2041 26.4399H22.5863C22.6877 26.4399 22.7849 26.4905 22.8565 26.5805C22.9282 26.6705 22.9685 26.7926 22.9685 26.9199V27.3999C22.9685 27.5272 22.9282 27.6493 22.8565 27.7393C22.7849 27.8294 22.6877 27.8799 22.5863 27.8799H22.2041C22.1027 27.8799 22.0055 27.8294 21.9338 27.7393C21.8622 27.6493 21.8219 27.5272 21.8219 27.3999V26.9199Z" fill="#57A4FF"/>
<path d="M27.3636 24.64C27.2623 24.64 27.1651 24.6906 27.0934 24.7806C27.0217 24.8706 26.9814 24.9927 26.9814 25.12V31.72C26.9814 31.8473 27.0217 31.9694 27.0934 32.0594C27.1651 32.1494 27.2623 32.2 27.3636 32.2H28.0325C28.1339 32.2 28.2311 32.1494 28.3028 32.0594C28.3744 31.9694 28.4147 31.8473 28.4147 31.72V29.192C28.4147 29.129 28.4246 29.0666 28.4438 29.0083C28.463 28.9501 28.4911 28.8972 28.5266 28.8526C28.5621 28.808 28.6043 28.7727 28.6506 28.7486C28.697 28.7244 28.7467 28.712 28.7969 28.712H30.3257C30.4271 28.712 30.5243 28.7626 30.596 28.8526C30.6676 28.9426 30.7079 29.0647 30.7079 29.192V31.72C30.7079 31.8473 30.7482 31.9694 30.8198 32.0594C30.8915 32.1494 30.9887 32.2 31.0901 32.2H31.7589C31.8091 32.2 31.8588 32.1876 31.9052 32.1635C31.9516 32.1394 31.9937 32.104 32.0292 32.0594C32.0647 32.0149 32.0928 31.9619 32.1121 31.9037C32.1313 31.8455 32.1411 31.783 32.1411 31.72V25.12C32.1411 25.057 32.1313 24.9946 32.1121 24.9363C32.0928 24.8781 32.0647 24.8252 32.0292 24.7806C31.9937 24.736 31.9516 24.7007 31.9052 24.6766C31.8588 24.6524 31.8091 24.64 31.7589 24.64H27.3636Z" fill="#57A4FF"/>
</g>
</g>
<defs>
<clipPath id="clip0">
<rect width="33" height="33" fill="white"/>
</clipPath>
<clipPath id="clip1">
<rect width="12.74" height="16" fill="white" transform="translate(20 17)"/>
</clipPath>
</defs>
</svg>
