<svg width="33" height="33" viewBox="0 0 33 33" fill="none" xmlns="http://www.w3.org/2000/svg">
<rect width="33" height="33" fill="white"/>
<path d="M27.4313 1.03125H6.3938C5.1563 1.03125 4.3313 1.85625 4.3313 3.09375V30.3188C4.3313 31.35 5.36255 32.3813 6.3938 32.3813H19.5938C20.8313 32.3813 21.6563 31.5562 21.6563 30.3188V25.9875C21.6563 24.9563 22.6875 23.925 23.7188 23.925H27.225C28.4625 23.925 29.2875 23.1 29.2875 21.8625V2.8875C29.7001 1.85625 28.6688 1.03125 27.4313 1.03125ZM20.625 17.9438C20.625 18.5625 20.2125 18.975 19.5938 18.975H10.3125C9.6938 18.975 9.2813 18.5625 9.2813 17.9438V17.7375C9.2813 17.1188 9.6938 16.7063 10.3125 16.7063H19.5938C20.2125 16.7063 20.625 17.1187 20.625 17.9438ZM25.1625 12.375C25.1625 12.9937 24.75 13.4062 24.1313 13.4062H10.3125C9.6938 13.2 9.07505 12.7875 9.07505 12.375V12.1687C9.07505 11.55 9.48755 11.1375 10.1063 11.1375H23.925C24.75 11.1375 25.1625 11.55 25.1625 12.375ZM25.1625 6.80625C25.1625 7.425 24.75 7.8375 24.1313 7.8375H10.3125C9.6938 7.8375 9.2813 7.425 9.2813 6.80625V6.6C9.2813 5.98125 9.6938 5.56875 10.3125 5.56875H24.1313C24.75 5.56875 25.1625 5.98125 25.1625 6.80625Z" fill="#0B4870"/>
<path d="M23.1 27.4312V30.3187C23.1 31.35 24.3375 31.7625 24.9562 31.1437L29.0812 27.0187C29.7 26.4 29.2875 25.1625 28.2562 25.1625H25.3687C24.1312 25.1625 23.1 26.1937 23.1 27.4312Z" fill="#0B4870"/>
</svg>
