<svg width="33" height="33" viewBox="0 0 33 33" fill="none" xmlns="http://www.w3.org/2000/svg">
<g clip-path="url(#clip0)">
<path d="M27.4312 1.03125H6.39374C5.15624 1.03125 4.33124 1.85625 4.33124 3.09375V30.3188C4.33124 31.35 5.36249 32.3813 6.39374 32.3813H19.5937C20.8312 32.3813 21.6562 31.5562 21.6562 30.3188V25.9875C21.6562 24.9563 22.6875 23.925 23.7187 23.925H27.225C28.4625 23.925 29.2875 23.1 29.2875 21.8625V2.8875C29.7 1.85625 28.6687 1.03125 27.4312 1.03125ZM20.625 17.9438C20.625 18.5625 20.2125 18.975 19.5937 18.975H10.3125C9.69374 18.975 9.28124 18.5625 9.28124 17.9438V17.7375C9.28124 17.1188 9.69374 16.7063 10.3125 16.7063H19.5937C20.2125 16.7063 20.625 17.1187 20.625 17.9438ZM25.1625 12.375C25.1625 12.9937 24.75 13.4062 24.1312 13.4062H10.3125C9.69374 13.2 9.07499 12.7875 9.07499 12.375V12.1687C9.07499 11.55 9.48749 11.1375 10.1062 11.1375H23.925C24.75 11.1375 25.1625 11.55 25.1625 12.375ZM25.1625 6.80625C25.1625 7.425 24.75 7.8375 24.1312 7.8375H10.3125C9.69374 7.8375 9.28124 7.425 9.28124 6.80625V6.6C9.28124 5.98125 9.69374 5.56875 10.3125 5.56875H24.1312C24.75 5.56875 25.1625 5.98125 25.1625 6.80625Z" fill="#0B4870"/>
<path d="M23.1 27.4312V30.3187C23.1 31.35 24.3375 31.7625 24.9563 31.1437L29.0813 27.0187C29.7 26.4 29.2875 25.1625 28.2563 25.1625H25.3688C24.1313 25.1625 23.1 26.1937 23.1 27.4312Z" fill="#0B4870"/>
<g clip-path="url(#clip1)">
<rect width="33" height="33" fill="white"/>
<path d="M27.4313 1.03125H6.3938C5.1563 1.03125 4.3313 1.85625 4.3313 3.09375V30.3188C4.3313 31.35 5.36255 32.3813 6.3938 32.3813H19.5938C20.8313 32.3813 21.6563 31.5562 21.6563 30.3188V25.9875C21.6563 24.9563 22.6875 23.925 23.7188 23.925H27.225C28.4625 23.925 29.2875 23.1 29.2875 21.8625V2.8875C29.7001 1.85625 28.6688 1.03125 27.4313 1.03125ZM20.625 17.9438C20.625 18.5625 20.2125 18.975 19.5938 18.975H10.3125C9.6938 18.975 9.2813 18.5625 9.2813 17.9438V17.7375C9.2813 17.1188 9.6938 16.7063 10.3125 16.7063H19.5938C20.2125 16.7063 20.625 17.1187 20.625 17.9438ZM25.1625 12.375C25.1625 12.9937 24.75 13.4062 24.1313 13.4062H10.3125C9.6938 13.2 9.07505 12.7875 9.07505 12.375V12.1687C9.07505 11.55 9.48755 11.1375 10.1063 11.1375H23.925C24.75 11.1375 25.1625 11.55 25.1625 12.375ZM25.1625 6.80625C25.1625 7.425 24.75 7.8375 24.1313 7.8375H10.3125C9.6938 7.8375 9.2813 7.425 9.2813 6.80625V6.6C9.2813 5.98125 9.6938 5.56875 10.3125 5.56875H24.1313C24.75 5.56875 25.1625 5.98125 25.1625 6.80625Z" fill="#0B4870"/>
<path d="M23.1 27.4312V30.3187C23.1 31.35 24.3375 31.7625 24.9563 31.1437L29.0813 27.0187C29.7 26.4 29.2875 25.1625 28.2563 25.1625H25.3688C24.1313 25.1625 23.1 26.1937 23.1 27.4312Z" fill="#0B4870"/>
<path d="M32.2967 28.9004C31.8272 28.4319 31.2132 28.1979 30.5992 28.1979C30.4498 28.1979 30.3003 28.2115 30.1521 28.239L22.9315 21.0186C23.3138 19.8829 22.9937 18.6276 22.1145 17.8131C21.5404 17.2802 20.7956 17 20.0409 17C19.6412 17 19.2389 17.0783 18.8566 17.2403C18.7532 17.2863 18.6785 17.3785 18.6548 17.4882C18.6349 17.5991 18.671 17.7122 18.7482 17.7919L20.762 19.8056L19.8056 20.7631L17.7918 18.7494C17.727 18.6847 17.6399 18.6499 17.5502 18.6499C17.529 18.6499 17.5091 18.6524 17.4879 18.656C17.3783 18.6798 17.2862 18.7533 17.2401 18.8567C16.7743 19.9611 16.9973 21.2364 17.813 22.1144C18.3995 22.7483 19.214 23.0908 20.0484 23.0908C20.3735 23.0908 20.6997 23.0385 21.0186 22.9313L28.2392 30.1517C28.0973 30.9052 28.3177 31.7134 28.9005 32.2963C29.3526 32.7469 29.9379 32.9812 30.5307 32.9985C30.5531 32.9985 30.5756 33 30.598 33C31.0214 33 31.4436 32.889 31.8184 32.6675C31.9891 32.5665 32.1497 32.4432 32.2967 32.2964C33.2344 31.3585 33.2344 29.8381 32.2967 28.9004ZM31.2867 31.2863C31.0887 31.4846 30.8284 31.5828 30.5693 31.5828C30.3091 31.5828 30.0488 31.4846 29.8508 31.2863C29.4547 30.8903 29.4547 30.2477 29.8508 29.8506C30.05 29.6538 30.3091 29.5555 30.5693 29.5555C30.8284 29.5555 31.0874 29.6538 31.2867 29.8506C31.6827 30.2477 31.6827 30.8903 31.2867 31.2863Z" fill="#57A4FF"/>
</g>
</g>
<defs>
<clipPath id="clip0">
<rect width="33" height="33" fill="white"/>
</clipPath>
<clipPath id="clip1">
<rect width="33" height="33" fill="white"/>
</clipPath>
</defs>
</svg>
