<svg width="20" height="20" viewBox="0 0 20 20" fill="none" xmlns="http://www.w3.org/2000/svg">
<g clip-path="url(#clip0)">
<path d="M17.5082 18.5441C17.7647 18.5441 17.9726 18.7729 17.9726 19.0552C17.9726 19.3376 17.7647 19.5664 17.5082 19.5664H2.33935C2.08291 19.5664 1.875 19.3376 1.875 19.0552C1.875 18.7729 2.08291 18.5441 2.33935 18.5441H17.5082ZM14.8985 2.94661C15.8052 3.94476 15.8052 5.56303 14.8985 6.56114L7.29706 14.929C6.97423 15.2844 6.58067 15.5521 6.14754 15.7111L3.93673 16.5223C3.36904 16.7305 2.75544 16.3928 2.5662 15.7679C2.49207 15.5231 2.49207 15.2584 2.5662 15.0135L3.30316 12.5798C3.44754 12.103 3.69079 11.6698 4.01362 11.3144L11.615 2.94661C12.5217 1.94846 13.9917 1.94846 14.8984 2.94661H14.8985ZM4.77172 11.9256L4.67031 12.0373C4.44942 12.2805 4.28298 12.5769 4.1842 12.9032L3.44727 15.3368C3.43817 15.3669 3.43685 15.3991 3.44346 15.4299C3.45006 15.4607 3.46432 15.4889 3.48465 15.5112C3.50498 15.5336 3.53057 15.5493 3.55855 15.5566C3.58653 15.5639 3.6158 15.5624 3.64307 15.5524L5.85385 14.7412C6.15021 14.6324 6.41949 14.4492 6.64037 14.206L6.74179 14.0944L4.77172 11.9256ZM11.6596 4.34327L5.42841 11.2027L7.39851 13.3715L13.6297 6.51197L11.6596 4.34327ZM12.3173 3.62146L14.2854 5.78798C14.7854 5.18623 14.7708 4.2519 14.2418 3.66951C13.7127 3.08711 12.864 3.0711 12.3173 3.62146Z" fill="#0B4870"/>
</g>
<defs>
<clipPath id="clip0">
<rect width="20" height="20" fill="white"/>
</clipPath>
</defs>
</svg>
