<svg width="33" height="33" viewBox="0 0 33 33" fill="none" xmlns="http://www.w3.org/2000/svg">
<path d="M27.3679 4.40002C28.9232 4.40002 30.1839 5.66308 30.1839 7.22114V21.9438C30.1839 23.5019 28.9232 24.765 27.3679 24.765L17.4679 24.7649V26.7485H25.4319V28.688H7.56792V26.7485H15.5319V24.7649L5.63194 24.7649C4.07669 24.7649 2.81592 23.5018 2.81592 21.9438V7.22114C2.81592 5.66308 4.07669 4.40002 5.63194 4.40002H27.3679ZM27.3679 6.33955H5.63194C5.14593 6.33955 4.75193 6.73426 4.75193 7.22114V21.9438C4.75193 22.4307 5.14593 22.8254 5.63194 22.8254H27.3679C27.8539 22.8254 28.2479 22.4307 28.2479 21.9438V7.22114C28.2479 6.73426 27.8539 6.33955 27.3679 6.33955ZM23.0999 11.264L24.4689 12.6355L20.8143 16.2967C19.6114 17.5017 17.6613 17.5017 16.4585 16.2967L14.7593 14.5944C14.3126 14.1469 13.5882 14.1469 13.1414 14.5944L9.81685 17.9251L8.4479 16.5536L11.7725 13.223C12.9753 12.018 14.9254 12.018 16.1283 13.223L17.8274 14.9253C18.2742 15.3728 18.9986 15.3728 19.4453 14.9253L23.0999 11.264Z" fill="#0B4870"/>
</svg>
