<svg width="20" height="20" viewBox="0 0 20 20" fill="none" xmlns="http://www.w3.org/2000/svg">
<g clip-path="url(#clip0)">
<path d="M9.4668 1.49995C9.37287 1.40489 9.261 1.32942 9.13768 1.27792C9.01436 1.22642 8.88204 1.19992 8.7484 1.19995H1.05C0.442 1.26155 0 1.70875 0 2.26595V18.1631C0.0608 18.7555 0.4584 19.1723 0.9664 19.1723H16.9376C17.4472 19.1723 17.8544 18.8312 17.9056 18.3603L17.91 18.3316C17.9264 18.2528 19.586 10.3956 19.974 7.77435C20.03 7.39995 19.9948 7.09355 19.878 6.93315C19.7036 6.69195 19.402 6.54875 19.0712 6.54875H18.8V4.94395C18.8 4.35595 18.3356 3.87795 17.764 3.87795H9.7828V2.26835C9.7828 1.98035 9.6692 1.70435 9.4668 1.49995ZM19.0872 7.69475C19.2484 7.93075 19.2032 8.15395 19.1592 8.36995L17.2732 17.674L17.27 17.6883C17.2191 17.883 17.1064 18.0559 16.9489 18.1811C16.7914 18.3063 16.5975 18.3771 16.3964 18.3827H1.7988C1.66895 18.3847 1.54027 18.358 1.42191 18.3045C1.30356 18.2511 1.19843 18.1722 1.114 18.0735C1.02566 17.966 0.961736 17.8406 0.926651 17.7059C0.891566 17.5712 0.886158 17.4305 0.9108 17.2935V17.2855C0.9248 17.2167 2.3196 10.3368 2.77 8.05755C2.93 7.24635 3.5336 7.26515 3.8568 7.27515H18.3136C18.6248 7.27955 18.9136 7.43675 19.0872 7.69515V7.69475ZM17.144 4.67275C17.3822 4.67497 17.6098 4.77154 17.777 4.94129C17.9441 5.11105 18.0371 5.34014 18.0356 5.57835V6.48315H3.104C2.594 6.48315 2.1872 6.82435 2.136 7.29515L2.132 7.32075L1.2772 11.6144L0.7672 13.9639V2.97275C0.765601 2.73447 0.858565 2.50527 1.02571 2.33543C1.19285 2.16559 1.42052 2.06897 1.6588 2.06675H8.1276C8.36588 2.06897 8.59355 2.16559 8.76069 2.33543C8.92783 2.50527 9.0208 2.73447 9.0192 2.97275V4.30995C9.0183 4.35674 9.02663 4.40324 9.04372 4.4468C9.06081 4.49037 9.08631 4.53013 9.11878 4.56383C9.15125 4.59753 9.19005 4.62449 9.23295 4.64318C9.27585 4.66187 9.32201 4.67192 9.3688 4.67275H17.144Z" fill="#0B4870"/>
</g>
<defs>
<clipPath id="clip0">
<rect width="20" height="20" fill="white"/>
</clipPath>
</defs>
</svg>
