<svg width="55" height="52" viewBox="0 0 55 52" fill="none" xmlns="http://www.w3.org/2000/svg">
<path d="M41.9324 22.7129L39.743 22.3609C39.5158 21.6673 39.2212 20.995 38.8631 20.3526L40.1531 18.6462C40.419 18.2952 40.5441 17.8662 40.5059 17.436C40.4676 17.0058 40.2687 16.6025 39.9445 16.2984L38.0024 14.4622C37.8242 14.2921 37.612 14.1571 37.3782 14.0651C37.1443 13.9732 36.8935 13.926 36.6403 13.9264C36.2403 13.9254 35.8503 14.0443 35.5262 14.2658L33.7143 15.4855C33.0122 15.1331 32.2754 14.8461 31.5144 14.6286L31.151 12.5869C31.0758 12.1606 30.8427 11.7735 30.4934 11.4947C30.144 11.2159 29.7012 11.0637 29.2441 11.0652H26.5012C26.0446 11.0645 25.6025 11.2172 25.2539 11.4961C24.9052 11.775 24.6727 12.1618 24.5978 12.5878L24.2203 14.6827C23.4875 14.8995 22.7783 15.182 22.1022 15.5263L20.3097 14.3099C19.9383 14.0594 19.4849 13.9417 19.0303 13.9778C18.5756 14.0139 18.1493 14.2015 17.8273 14.5071L15.8782 16.3433C15.5556 16.648 15.3576 17.051 15.3194 17.4807C15.2813 17.9103 15.4053 18.3389 15.6696 18.6903L16.9729 20.4216C16.6164 21.0644 16.3253 21.7377 16.1035 22.4325L13.9405 22.7769C13.4901 22.8478 13.081 23.0676 12.7862 23.3972C12.4914 23.7269 12.3301 24.1448 12.331 24.5765V27.1706C12.3301 27.6022 12.4914 28.02 12.7863 28.3495C13.0811 28.679 13.4902 28.8987 13.9405 28.9693L16.1563 29.3271C16.3858 30.0198 16.6846 30.6904 17.0486 31.3296L15.7647 33.0177C15.499 33.3686 15.3741 33.7974 15.4123 34.2275C15.4505 34.6575 15.6493 35.0606 15.9732 35.3647L17.9153 37.2009C18.0935 37.371 18.3057 37.506 18.5396 37.598C18.7734 37.6899 19.0243 37.7371 19.2775 37.7366C19.6774 37.7381 20.0675 37.6195 20.3916 37.398L22.2228 36.1659C22.8822 36.4912 23.5714 36.7594 24.2819 36.9671L24.6471 39.037C24.722 39.4628 24.9546 39.8496 25.3032 40.1284C25.6518 40.4071 26.0939 40.5596 26.5505 40.5587H29.303C29.7596 40.5598 30.2016 40.4073 30.5501 40.1285C30.8987 39.8497 31.131 39.4629 31.2055 39.037L31.5769 36.9671C32.311 36.7526 33.0224 36.4741 33.702 36.1351L35.5068 37.3556C35.8782 37.6067 36.3319 37.7247 36.7868 37.6886C37.2418 37.6525 37.6683 37.4646 37.9901 37.1584L39.9322 35.3231C40.2548 35.0181 40.4526 34.6149 40.4906 34.1851C40.5286 33.7553 40.4044 33.3267 40.1399 32.9753L38.8499 31.2622C39.2092 30.6204 39.5038 29.9479 39.7298 29.2538L41.9192 28.9086C42.3696 28.8381 42.7788 28.6185 43.0737 28.2889C43.3685 27.9594 43.5298 27.5415 43.5287 27.1099V24.5149C43.5358 24.0834 43.3785 23.6638 43.0854 23.3329C42.7923 23.0021 42.383 22.782 41.9324 22.7129ZM41.7828 27.1057C41.7833 27.1442 41.769 27.1816 41.7427 27.2109C41.7163 27.2403 41.6796 27.2596 41.6394 27.2654L38.9018 27.7047C38.7345 27.7307 38.5788 27.8023 38.4538 27.9106C38.3288 28.0189 38.2398 28.1592 38.1978 28.3145C37.9508 29.2207 37.5689 30.0891 37.0635 30.8937C36.9768 31.0319 36.9343 31.191 36.9411 31.3517C36.948 31.5123 37.004 31.6676 37.1022 31.7989L38.7135 33.9445C38.7357 33.9766 38.7459 34.0147 38.7424 34.0529C38.7389 34.0911 38.7219 34.1271 38.6941 34.155L36.752 35.9903C36.7361 36.0063 36.7169 36.0189 36.6955 36.0273C36.6741 36.0358 36.6511 36.0399 36.6279 36.0394C36.5926 36.04 36.5581 36.0291 36.5303 36.0086L34.2687 34.487C34.1299 34.3939 33.9654 34.3409 33.7953 34.3344C33.6252 34.3279 33.4568 34.3682 33.3104 34.4504C32.4595 34.9281 31.541 35.2889 30.5825 35.5219C30.4178 35.5609 30.2689 35.6447 30.1542 35.7631C30.0395 35.8814 29.9642 36.029 29.9375 36.1875L29.472 38.77C29.4659 38.808 29.4454 38.8427 29.4143 38.8676C29.3833 38.8925 29.3438 38.906 29.303 38.9056H26.5593C26.5185 38.906 26.4788 38.8926 26.4476 38.8677C26.4165 38.8428 26.3958 38.8081 26.3895 38.77L25.9336 36.1817C25.9053 36.0238 25.8293 35.8771 25.7149 35.759C25.6005 35.6409 25.4525 35.5566 25.2886 35.5161C24.3528 35.2862 23.4537 34.9389 22.6153 34.4836C22.481 34.4119 22.3295 34.3738 22.1753 34.373C21.9921 34.3716 21.8133 34.4255 21.6649 34.5269L19.384 36.0611C19.355 36.0795 19.3212 36.0901 19.2863 36.0918C19.24 36.0914 19.1958 36.0738 19.1631 36.0428L17.221 34.2066C17.1927 34.1791 17.1754 34.1432 17.1718 34.105C17.1683 34.0668 17.1789 34.0286 17.2017 33.9969L18.8041 31.8712C18.9033 31.7385 18.9598 31.5815 18.9669 31.4192C18.9739 31.2568 18.9311 31.096 18.8437 30.9561C18.334 30.1539 17.9487 29.2868 17.6997 28.3811C17.6558 28.2267 17.5663 28.0873 17.4416 27.9793C17.3169 27.8713 17.1623 27.7992 16.9958 27.7713L14.2388 27.327C14.1986 27.3212 14.1619 27.3018 14.1355 27.2725C14.1092 27.2431 14.0949 27.2058 14.0954 27.1673V24.5765C14.0949 24.5379 14.1091 24.5004 14.1354 24.4709C14.1618 24.4414 14.1985 24.4219 14.2388 24.4159L16.9562 23.985C17.125 23.9587 17.2821 23.8865 17.4083 23.7772C17.5344 23.6678 17.6241 23.5261 17.6663 23.3693C17.9061 22.4609 18.2815 21.5894 18.7812 20.781C18.8669 20.6431 18.9081 20.4846 18.9 20.3249C18.8919 20.1652 18.8347 20.0112 18.7355 19.8817L17.1128 17.7252C17.09 17.6935 17.0794 17.6553 17.083 17.6171C17.0865 17.5789 17.1039 17.543 17.1322 17.5155L19.0743 15.6794C19.0901 15.6634 19.1094 15.6508 19.1308 15.6424C19.1521 15.6339 19.1752 15.6298 19.1983 15.6303C19.2336 15.6303 19.2678 15.6411 19.296 15.6611L21.5443 17.1769C21.6849 17.2704 21.8509 17.3236 22.0226 17.3301C22.1943 17.3366 22.3643 17.2961 22.5123 17.2135C23.3608 16.7317 24.2779 16.3675 25.2358 16.132C25.399 16.0903 25.5463 16.0056 25.6605 15.8877C25.7747 15.7699 25.8511 15.6237 25.8808 15.4664L26.3507 12.8606C26.3565 12.8224 26.3769 12.7875 26.408 12.7626C26.4392 12.7376 26.4789 12.7242 26.5197 12.725H29.2634C29.3043 12.7244 29.344 12.7378 29.3753 12.7627C29.4065 12.7876 29.4271 12.8224 29.4333 12.8606L29.8891 15.4298C29.9169 15.5883 29.9927 15.7359 30.1073 15.8546C30.222 15.9733 30.3705 16.0581 30.535 16.0987C31.5168 16.3309 32.4583 16.6951 33.3307 17.1802C33.4769 17.2623 33.6452 17.3024 33.8151 17.296C33.985 17.2895 34.1493 17.2366 34.2881 17.1436L36.5364 15.6153C36.5655 15.597 36.5992 15.5863 36.6341 15.5845C36.6807 15.5847 36.7253 15.6024 36.7582 15.6336L38.7003 17.4714C38.7286 17.4989 38.7459 17.5348 38.7495 17.573C38.753 17.6112 38.7424 17.6494 38.7196 17.6811L37.1102 19.8193C37.0116 19.9505 36.9554 20.1059 36.9483 20.2667C36.9413 20.4275 36.9838 20.5868 37.0706 20.7253C37.5761 21.5298 37.958 22.3982 38.2048 23.3044C38.2459 23.4602 38.3346 23.601 38.4598 23.7095C38.585 23.8179 38.7411 23.8891 38.9088 23.9142L41.6455 24.351C41.6859 24.357 41.7226 24.3766 41.7489 24.406C41.7752 24.4355 41.7895 24.473 41.789 24.5116V27.1057H41.7828Z" fill="#0B4870"/>
<path d="M27.9347 19.444C26.6033 19.444 25.3018 19.8173 24.1947 20.5167C23.0877 21.216 22.2249 22.21 21.7153 23.373C21.2058 24.536 21.0725 25.8157 21.3323 27.0503C21.592 28.2849 22.2332 29.419 23.1746 30.3091C24.1161 31.1992 25.3156 31.8054 26.6214 32.051C27.9272 32.2965 29.2808 32.1705 30.5108 31.6888C31.7409 31.2071 32.7923 30.3913 33.532 29.3446C34.2717 28.298 34.6665 27.0674 34.6665 25.8086C34.6653 24.121 33.9557 22.5028 32.6935 21.3094C31.4313 20.1161 29.7197 19.4451 27.9347 19.444ZM27.9347 30.5093C26.9513 30.5086 25.9902 30.2323 25.1729 29.7153C24.3556 29.1982 23.7187 28.4637 23.3429 27.6045C22.9671 26.7453 22.8692 25.8001 23.0615 24.8883C23.2539 23.9765 23.7279 23.139 24.4235 22.4819C25.1192 21.8247 26.0053 21.3774 26.9699 21.1963C27.9345 21.0153 28.9342 21.1087 29.8426 21.4648C30.751 21.8208 31.5274 22.4236 32.0736 23.1968C32.6197 23.97 32.9111 24.8789 32.9109 25.8086C32.91 27.0551 32.3859 28.2503 31.4537 29.1318C30.5216 30.0133 29.2575 30.509 27.9391 30.5101L27.9347 30.5093Z" fill="#0B4870"/>
</svg>
