<svg width="18" height="18" viewBox="0 0 18 18" fill="none" xmlns="http://www.w3.org/2000/svg">
<path d="M16.4998 3.03038H1.5002C0.675088 3.03038 0 2.34855 0 1.51519C0 0.681836 0.675088 0 1.5002 0H16.4975C17.3226 0 17.9977 0.681836 17.9977 1.51519C18 2.34855 17.3249 3.03038 16.4998 3.03038ZM16.4998 10.4477H1.58927C0.764162 10.4477 0.0890742 9.76588 0.0890742 8.93253C0.0890742 8.09917 0.764162 7.41733 1.58927 7.41733H16.4998C17.3249 7.41733 18 8.09917 18 8.93253C18 9.76588 17.3249 10.4477 16.4998 10.4477ZM16.4998 18H1.5002C0.675088 18 0 17.3182 0 16.4848C0 15.6515 0.675088 14.9696 1.5002 14.9696H16.4975C17.3226 14.9696 17.9977 15.6515 17.9977 16.4848C18 17.3182 17.3249 18 16.4998 18Z" fill="#0B4870"/>
</svg>
