<svg width="33" height="33" viewBox="0 0 33 33" fill="none" xmlns="http://www.w3.org/2000/svg">
<g clip-path="url(#clip0)">
<path d="M16.5877 18.5745C11.4766 18.5745 7.31798 14.4093 7.31798 9.28623C7.31798 4.16311 11.4778 0 16.5877 0C21.6976 0 25.8578 4.16513 25.8578 9.28785C25.8578 14.4106 21.7004 18.5745 16.5877 18.5745ZM16.5877 1.61672C12.3669 1.61672 8.93316 5.0572 8.93316 9.28623C8.93316 13.5153 12.3681 16.957 16.5877 16.957C20.8073 16.957 24.2439 13.5173 24.2439 9.28785C24.2439 5.05841 20.8101 1.61834 16.5877 1.61834V1.61672Z" fill="#0B4870"/>
<path d="M1.61443 33L6.10352e-05 32.8957C0.57276 23.9883 8.00614 17.0107 16.9235 17.0107V18.6283C8.85531 18.6291 2.12982 24.9415 1.61443 33ZM19.2515 30.6174H17.8389C17.2583 30.623 16.6824 30.5132 16.1444 30.2944C15.6064 30.0757 15.117 29.7523 14.7044 29.3429C14.2919 28.9335 13.9645 28.4463 13.741 27.9093C13.5175 27.3724 13.4025 26.7964 13.4025 26.2147C13.4025 25.6329 13.5175 25.0569 13.741 24.52C13.9645 23.9831 14.2919 23.4958 14.7044 23.0865C15.117 22.6771 15.6064 22.3537 16.1444 22.1349C16.6824 21.9162 17.2583 21.8064 17.8389 21.812H21.9725C22.8252 21.8118 23.6595 22.0605 24.3734 22.5276C25.0874 22.9947 25.6501 23.66 25.9929 24.4423C26.3357 25.2245 26.4436 26.0899 26.3036 26.9326C26.1636 27.7754 25.7817 28.5591 25.2045 29.1879L24.0139 28.0928C24.3787 27.6953 24.6201 27.1999 24.7085 26.6672C24.797 26.1345 24.7287 25.5875 24.5121 25.0931C24.2954 24.5986 23.9397 24.1781 23.4884 23.8828C23.0372 23.5875 22.5099 23.4303 21.9709 23.4303H17.8389C17.4711 23.4259 17.1062 23.4946 16.7651 23.6325C16.4241 23.7705 16.1137 23.9749 15.8521 24.2339C15.5905 24.4928 15.3828 24.8013 15.241 25.1413C15.0993 25.4813 15.0263 25.8462 15.0263 26.2147C15.0263 26.5832 15.0993 26.948 15.241 27.288C15.3828 27.6281 15.5905 27.9365 15.8521 28.1955C16.1137 28.4545 16.4241 28.6589 16.7651 28.7968C17.1062 28.9347 17.4711 29.0035 17.8389 28.999H19.2515V30.6174Z" fill="#0B4870"/>
<path d="M28.6354 32.2878H24.501C23.6485 32.2876 22.8145 32.0386 22.1008 31.5714C21.3872 31.1043 20.8247 30.439 20.482 29.6569C20.1393 28.8748 20.0313 28.0096 20.1712 27.167C20.311 26.3244 20.6926 25.5409 21.2694 24.9119L22.4604 26.0037C22.0947 26.401 21.8524 26.8964 21.7633 27.4295C21.6742 27.9625 21.742 28.51 21.9585 29.005C22.175 29.5 22.5307 29.921 22.9823 30.2167C23.4338 30.5123 23.9616 30.6696 24.501 30.6695H28.6354C29.3667 30.6607 30.0651 30.3634 30.5791 29.8421C31.0932 29.3208 31.3814 28.6175 31.3814 27.8847C31.3814 27.1519 31.0932 26.4486 30.5791 25.9274C30.0651 25.4061 29.3667 25.1088 28.6354 25.0999H27.2228V23.4824H28.6354C29.7936 23.4935 30.9006 23.9623 31.7157 24.7869C32.5307 25.6114 32.988 26.725 32.988 27.8855C32.988 29.0461 32.5307 30.1597 31.7157 30.9842C30.9006 31.8087 29.7936 32.2775 28.6354 32.2887V32.2878Z" fill="#E31616"/>
</g>
<defs>
<clipPath id="clip0">
<rect width="33" height="33" fill="white"/>
</clipPath>
</defs>
</svg>
