<svg width="33" height="33" viewBox="0 0 33 33" fill="none" xmlns="http://www.w3.org/2000/svg">
<path d="M26.8447 29.323C25.8844 29.323 25.0626 28.4948 24.7887 28.3595L16.9802 23.6705C16.7063 23.5319 16.5677 22.9809 16.7063 22.7069C16.8416 22.433 17.3927 22.2944 17.6634 22.433L25.4719 27.2573C26.0197 27.6698 26.5676 27.947 26.7062 27.947C26.7062 27.947 26.8415 27.8084 26.8415 27.3959C26.9801 24.9145 28.759 5.34004 28.8976 4.51182C28.8976 4.23467 28.7622 3.68359 28.6236 3.54824C28.4851 3.54824 28.3497 3.54824 28.0758 3.68682C26.1583 4.64717 6.01992 14.8469 5.05957 15.2626C4.65029 15.4012 4.23779 15.8137 4.23779 15.9522C4.23779 16.0908 4.37314 16.368 5.05957 16.7805C7.66348 18.2983 9.30703 19.1266 9.30703 19.1266C9.58096 19.2651 9.71953 19.6776 9.58096 20.0901C9.44561 20.3641 9.03311 20.5026 8.62061 20.3641C8.62061 20.3641 6.97705 19.5358 4.37314 18.0212C3.27744 17.4669 2.86816 16.7805 2.86816 15.9522C2.86816 14.8501 4.23779 14.1604 4.37637 14.0219C4.51494 13.8833 25.4751 3.40645 27.2572 2.44287C28.2176 1.8918 28.7654 2.03037 29.1747 2.3043C30.1318 2.85537 30.1318 4.23467 30.1318 4.50859C30.1318 4.78252 28.2144 25.0498 28.0758 27.3927C28.0758 28.3563 27.6633 28.9105 27.1154 29.1845C27.1187 29.1845 26.9801 29.323 26.8447 29.323Z" fill="#0B4870"/>
<path d="M12.1687 30.9375C11.7466 30.9375 11.4662 30.6636 11.4662 30.2511V21.4791L11.6048 21.3437L28.4464 2.97456C28.5753 2.84243 28.7525 2.76831 28.9362 2.76831C29.1199 2.76831 29.2972 2.84243 29.4261 2.97456C29.5614 3.09702 29.6355 3.27104 29.6355 3.45474C29.6355 3.63843 29.5582 3.81245 29.4261 3.93491L12.8713 21.8916V30.2543C12.8713 30.6636 12.4491 30.9375 12.1687 30.9375Z" fill="#0B4870"/>
</svg>
