<svg width="170" height="170" viewBox="0 0 170 170" fill="none" xmlns="http://www.w3.org/2000/svg">
<path d="M13.0664 15.3135H31.9851V154.575H13.0664V15.3135Z" fill="#0B4870"/>
<path d="M137.912 15.3135H156.451V154.575H137.912V15.3135Z" fill="#0B4870"/>
<path d="M130.463 40H124.982C124.981 70.5829 124.946 101.418 124.91 132H130.463C130.71 132 130.91 130.48 130.91 128.607V43.3915C130.91 41.5181 130.71 40 130.463 40Z" fill="#0B4870"/>
<path d="M39 36.447V41.9283C69.5829 41.9293 100.418 41.9643 131 42V36.447C131 36.2003 129.48 36 127.607 36L42.3915 36C40.5181 36 39 36.2003 39 36.447Z" fill="#0B4870"/>
<path d="M131 135.553V130.072C100.417 130.071 69.5817 130.036 39 130V135.553C39 135.8 40.5198 136 42.3929 136L127.608 136C129.482 136 131 135.8 131 135.553Z" fill="#0B4870"/>
<path d="M39.4437 40.0002C39.1984 40.0002 39 41.5181 39 43.3915V128.607C39 130.48 39.1984 132 39.4437 132H44.9288C44.9642 101.418 44.999 70.5829 45 40H39.4437V40.0002Z" fill="#0B4870"/>
<path d="M89.6284 68.2711C89.6284 70.8313 87.5327 72.9043 84.9423 72.9043C82.3612 72.9043 80.2666 70.8313 80.2666 68.2711C80.2666 65.7087 82.3612 63.6335 84.9423 63.6335C87.5327 63.6335 89.6284 65.7087 89.6284 68.2711Z" fill="#0B4870"/>
<path d="M92.3732 73.732C92.3732 73.732 93.5387 73.7008 93.5387 74.8442C93.5387 75.9875 93.5387 88.546 93.5387 88.546C93.5387 88.546 93.7228 89.9983 92.0836 89.9983C92.0836 89.9983 90.4547 90.1696 90.4547 88.2477C90.4547 86.1168 90.4547 78.0583 90.4547 78.0583V77.8826H89.8129L89.8408 106.105C89.8408 106.105 90.1883 108.398 87.5943 108.398C85.1372 108.398 85.3504 106.414 85.3504 106.105C85.3504 105.796 85.3468 90.0306 85.3468 90.0306H84.6692V106.231C84.6692 106.231 84.9009 108.398 82.5283 108.398C82.5283 108.398 80.1822 108.558 80.1822 106.247C80.1822 103.945 80.1822 77.8826 80.1822 77.8826H79.45V88.7774C79.45 88.7774 79.4547 89.9983 77.9035 89.9983C77.9035 89.9983 76.3604 90.0163 76.3604 88.615C76.3604 87.2203 76.3604 74.8219 76.3604 74.8219C76.3604 74.8219 76.0893 73.7253 77.7668 73.7253C79.4433 73.7253 92.3732 73.732 92.3732 73.732Z" fill="#0B4870"/>
</svg>
