<svg width="33" height="33" viewBox="0 0 33 33" fill="none" xmlns="http://www.w3.org/2000/svg">
<path d="M2.5365 2.97253H6.20896V30.0056H2.5365V2.97253Z" fill="#0B4870"/>
<path d="M26.7711 2.97253H30.3699V30.0056H26.7711V2.97253Z" fill="#0B4870"/>
<path d="M25.0067 7.73462H16.9021C16.9005 13.6768 16.8488 19.6679 16.796 25.6099H25.0067C25.3715 25.6099 25.6677 25.3146 25.6677 24.9506V8.39358C25.6677 8.02957 25.3715 7.73462 25.0067 7.73462Z" fill="#0B4870"/>
<path d="M8.3226 7.73465C7.9574 7.73465 7.66199 8.02957 7.66199 8.39358V24.9506C7.66199 25.3146 7.9574 25.6099 8.3226 25.6099H16.4888C16.5416 19.6679 16.5934 13.6768 16.5949 7.73462H8.3226V7.73465Z" fill="#0B4870"/>
<path d="M14.1401 4.07126V5.46281L16.1226 4.07126V6.81859H17.3709V4.07126L19.3538 5.4451V3.96151L16.7474 2.05652L14.1401 4.07126Z" fill="#0B4870"/>
<path d="M14.066 28.828L14.069 27.4363L16.0489 28.8323L16.0546 26.0845L17.3027 26.0875L17.2973 28.8352L19.2826 27.4653L19.2797 28.9493L16.6689 30.8485L14.066 28.828Z" fill="#0B4870"/>
</svg>
