<svg width="170" height="170" viewBox="0 0 170 170" fill="none" xmlns="http://www.w3.org/2000/svg">
<path d="M13.0664 15.3135H31.9851V154.575H13.0664V15.3135Z" fill="#0B4870"/>
<path d="M137.912 15.3135H156.451V154.575H137.912V15.3135Z" fill="#0B4870"/>
<path d="M129.84 40H103.347C103.342 70.5829 103.172 101.418 103 132H129.84C131.032 132 132 130.48 132 128.607V43.3915C132 41.5181 131.032 40 129.84 40Z" fill="#0B4870"/>
<path d="M41.1446 40.0002C39.959 40.0002 39 41.5181 39 43.3915V128.607C39 130.48 39.959 132 41.1446 132H67.6557C67.8269 101.418 67.9951 70.5829 68 40H41.1446V40.0002Z" fill="#0B4870"/>
<path d="M39 37.447V42.9283C69.9154 42.9293 101.086 42.9643 132 43V37.447C132 37.2003 130.464 37 128.57 37L42.4284 37C40.5346 37 39 37.2003 39 37.447Z" fill="#0B4870"/>
<path d="M132 134.553V129.072C101.085 129.071 69.9142 129.036 39 129V134.553C39 134.8 40.5363 135 42.4298 135L128.572 135C130.465 135 132 134.8 132 134.553Z" fill="#0B4870"/>
</svg>
