<svg width="170" height="170" viewBox="0 0 170 170" fill="none" xmlns="http://www.w3.org/2000/svg">
<path d="M13.0664 15.3135H31.9851V154.575H13.0664V15.3135V15.3135Z" fill="#0B4870"/>
<path d="M137.912 15.3135H156.451V154.575H137.912V15.3135V15.3135Z" fill="#0B4870"/>
<path d="M130.463 40H124.982C124.981 70.5829 124.946 101.418 124.91 132H130.463C130.71 132 130.91 130.48 130.91 128.607V43.3915C130.91 41.5181 130.71 40 130.463 40Z" fill="#0B4870"/>
<path d="M39 36.447V41.9283C69.5829 41.9293 100.418 41.9643 131 42V36.447C131 36.2003 129.48 36 127.607 36L42.3915 36C40.5181 36 39 36.2003 39 36.447Z" fill="#0B4870"/>
<path d="M131 135.553V130.072C100.417 130.071 69.5817 130.036 39 130V135.553C39 135.8 40.5198 136 42.3929 136L127.608 136C129.482 136 131 135.8 131 135.553Z" fill="#0B4870"/>
<path d="M39.4437 40.0002C39.1984 40.0002 39 41.5181 39 43.3915V128.607C39 130.48 39.1984 132 39.4437 132H44.9288C44.9642 101.418 44.999 70.5829 45 40H39.4437V40.0002Z" fill="#0B4870"/>
<path d="M84.5 54C67.103 54 53 68.103 53 85.5C53 102.897 67.103 117 84.5 117C101.897 117 116 102.897 116 85.5C116 68.103 101.897 54 84.5 54ZM98.9432 94.3749C99.4236 94.8553 99.4235 95.6344 98.9434 96.115L95.1149 99.9432C94.6345 100.424 93.8555 100.424 93.3746 99.9434L84.5 91.0685L75.6252 99.9432C75.1447 100.424 74.3656 100.424 73.8851 99.9432L70.0568 96.115C69.5763 95.6346 69.5761 94.8555 70.0568 94.3749L78.9316 85.5L70.0569 76.6252C69.5764 76.1449 69.5764 75.3656 70.0569 74.8851L73.8852 71.0569C74.3657 70.5763 75.1449 70.5764 75.6254 71.0569L84.5 79.9315L93.3749 71.0568C93.8551 70.5761 94.6343 70.5763 95.1149 71.0568L98.9432 74.885C99.4235 75.3656 99.4236 76.1446 98.9432 76.6251L90.0685 85.5L98.9432 94.3749Z" fill="#E31616"/>
</svg>
