<svg width="170" height="170" viewBox="0 0 170 170" fill="none" xmlns="http://www.w3.org/2000/svg">
<path d="M13.0664 15.3135H31.9851V154.575H13.0664V15.3135Z" fill="#0B4870"/>
<path d="M137.912 15.3135H156.451V154.575H137.912V15.3135Z" fill="#0B4870"/>
<path d="M128.822 39.845H87.0708C87.0628 70.456 86.7961 101.32 86.5244 131.93H128.822C130.701 131.93 132.227 130.408 132.227 128.534V43.2396C132.227 41.3644 130.701 39.845 128.822 39.845Z" fill="#0B4870"/>
<path d="M42.8733 39.8451C40.992 39.8451 39.4702 41.3644 39.4702 43.2396V128.534C39.4702 130.408 40.992 131.929 42.8733 131.929H84.9418C85.2134 101.32 85.4803 70.456 85.4881 39.845H42.8733V39.8451Z" fill="#0B4870"/>
<path d="M72.4609 148.508L72.4761 141.338L82.6754 148.53L82.7052 134.375L89.1344 134.39L89.1068 148.545L99.3343 141.488L99.3194 149.133L85.8694 158.916L72.4609 148.508Z" fill="#0B4870"/>
</svg>
