<svg width="25" height="25" viewBox="0 0 25 25" fill="none" xmlns="http://www.w3.org/2000/svg">
<path d="M12.5 0C15.8152 0 18.9946 1.31696 21.3388 3.66117C23.683 6.00537 25 9.18479 25 12.5C25 15.8152 23.683 18.9946 21.3388 21.3388C18.9946 23.683 15.8152 25 12.5 25C9.18479 25 6.00537 23.683 3.66117 21.3388C1.31696 18.9946 0 15.8152 0 12.5C0 9.18479 1.31696 6.00537 3.66117 3.66117C6.00537 1.31696 9.18479 0 12.5 0V0ZM17.6453 8.27031L10.9375 14.9781L7.35469 11.3953C7.06 11.1107 6.66531 10.9532 6.25562 10.9568C5.84594 10.9603 5.45405 11.1246 5.16435 11.4143C4.87465 11.704 4.71032 12.0959 4.70676 12.5056C4.7032 12.9153 4.86069 13.31 5.14531 13.6047L9.83281 18.2922C10.1258 18.5851 10.5232 18.7497 10.9375 18.7497C11.3518 18.7497 11.7492 18.5851 12.0422 18.2922L19.8547 10.4797C20.1393 10.185 20.2968 9.79031 20.2932 9.38062C20.2897 8.97094 20.1254 8.57905 19.8357 8.28935C19.546 7.99965 19.1541 7.83532 18.7444 7.83176C18.3347 7.8282 17.94 7.98569 17.6453 8.27031Z" fill="#21B614"/>
</svg>
