<svg width="33" height="33" viewBox="0 0 33 33" fill="none" xmlns="http://www.w3.org/2000/svg">
<path d="M22.8349 16.6108C23.9051 16.6116 24.9502 16.9361 25.8327 17.5417C26.7151 18.1473 27.3938 19.0056 27.7795 20.004C28.1651 21.0024 28.2398 22.0941 27.9936 23.1357C27.7474 24.1773 27.1919 25.1201 26.4 25.8402C27.4651 26.4442 28.3591 27.3091 28.9982 28.3535C29.6373 29.3979 30.0005 30.5876 30.0536 31.8108C30.0563 31.8786 30.0355 31.9452 29.9947 31.9993C29.9539 32.0535 29.8956 32.0918 29.8297 32.1078L29.759 32.1161H27.9876C27.9118 32.1162 27.8389 32.0871 27.7841 32.0348C27.7292 31.9826 27.6966 31.9112 27.6929 31.8356C27.6191 30.5968 27.0752 29.433 26.1724 28.5816C25.2695 27.7303 24.0758 27.2556 22.8349 27.2545C20.2455 27.2545 18.1206 29.2875 17.9768 31.8356C17.9731 31.898 17.95 31.9577 17.9107 32.0063C17.8714 32.0549 17.8178 32.09 17.7576 32.1066L17.6821 32.1161H15.9107C15.871 32.1161 15.8317 32.1081 15.7952 32.0926C15.7587 32.077 15.7256 32.0543 15.6981 32.0256C15.6706 31.997 15.6492 31.9631 15.6351 31.926C15.621 31.8889 15.6145 31.8493 15.6161 31.8096C15.6706 30.5869 16.0344 29.3979 16.6734 28.3539C17.3123 27.31 18.2056 26.4451 19.2697 25.8402C18.4778 25.1201 17.9223 24.1773 17.6761 23.1357C17.4299 22.0941 17.5046 21.0024 17.8903 20.004C18.2759 19.0056 18.9546 18.1473 19.837 17.5417C20.7195 16.9361 21.7646 16.6116 22.8349 16.6108ZM27.1072 0C27.713 0 28.2103 0.45375 28.2775 1.04068L28.2857 1.17857V15.3214C28.2854 15.3878 28.2628 15.4521 28.2216 15.504C28.1803 15.5559 28.1228 15.5925 28.0583 15.6078L27.9911 15.6161H25.9286C25.8623 15.6158 25.798 15.5932 25.746 15.5519C25.6941 15.5106 25.6575 15.4531 25.6422 15.3886L25.634 15.3214V2.65179H5.00896V28.5804H13.259C13.398 28.5804 13.5147 28.6782 13.5454 28.8078L13.5536 28.875V30.9375C13.5533 31.0038 13.5307 31.0681 13.4894 31.1201C13.4482 31.172 13.3907 31.2086 13.3261 31.2239L13.259 31.2321H3.53575C3.24701 31.2324 2.96825 31.1265 2.75247 30.9346C2.5367 30.7427 2.39896 30.4783 2.36543 30.1915L2.35718 30.0536V1.17857C2.35718 0.572786 2.81093 0.0754286 3.39786 0.00825L3.53575 0H27.1072ZM22.8349 18.9679C22.4411 18.9567 22.049 19.0246 21.6819 19.1675C21.3148 19.3104 20.9801 19.5255 20.6976 19.8001C20.4151 20.0746 20.1905 20.403 20.0371 20.7659C19.8837 21.1287 19.8046 21.5186 19.8045 21.9126C19.8044 22.3065 19.8834 22.6965 20.0366 23.0594C20.1899 23.4223 20.4143 23.7508 20.6967 24.0254C20.9792 24.3001 21.3138 24.5153 21.6808 24.6584C22.0479 24.8015 22.4399 24.8695 22.8337 24.8584C23.6004 24.8369 24.3285 24.5172 24.8632 23.9674C25.398 23.4175 25.6972 22.6808 25.6974 21.9138C25.6975 21.1467 25.3986 20.4099 24.864 19.8598C24.3295 19.3097 23.6016 18.9898 22.8349 18.9679ZM15.0268 17.2366C15.1659 17.2366 15.2826 17.3344 15.3132 17.4641L15.3215 17.5312V19.2991C15.3211 19.3654 15.2985 19.4297 15.2573 19.4817C15.216 19.5336 15.1585 19.5702 15.094 19.5855L15.0268 19.5938H8.25003C8.18371 19.5934 8.11941 19.5708 8.06747 19.5296C8.01554 19.4883 7.97897 19.4308 7.96364 19.3663L7.95539 19.2991V17.5312C7.95539 17.3922 8.05321 17.2755 8.18286 17.2449L8.25003 17.2366H15.0268ZM22.3929 11.933C22.532 11.933 22.6486 12.0309 22.6793 12.1605L22.6875 12.2277V13.9955C22.6872 14.0619 22.6646 14.1262 22.6234 14.1781C22.5821 14.23 22.5246 14.2666 22.4601 14.2819L22.3929 14.2902H8.25003C8.18371 14.2899 8.11941 14.2673 8.06747 14.226C8.01554 14.1848 7.97897 14.1272 7.96364 14.0627L7.95539 13.9955V12.2277C7.95539 12.0886 8.05321 11.9719 8.18286 11.9413L8.25003 11.933H22.3929ZM22.3929 6.62946C22.532 6.62946 22.6486 6.72729 22.6793 6.85693L22.6875 6.92411V8.69196C22.6872 8.75829 22.6646 8.82259 22.6234 8.87452C22.5821 8.92646 22.5246 8.96303 22.4601 8.97836L22.3929 8.98661H8.25003C8.18371 8.98629 8.11941 8.96369 8.06747 8.92244C8.01554 8.88118 7.97897 8.82368 7.96364 8.75914L7.95539 8.69196V6.92411C7.95539 6.78504 8.05321 6.66836 8.18286 6.63771L8.25003 6.62946H22.3929Z" fill="#0B4870"/>
</svg>
