<svg width="51" height="50" viewBox="0 0 51 50" fill="none" xmlns="http://www.w3.org/2000/svg">
<path fill-rule="evenodd" clip-rule="evenodd" d="M19.2775 27.0025C18.7777 27.1542 18.2507 27.3325 17.6795 27.5408C14.9034 28.559 13.1303 30.6825 12.6832 33.5225C12.5761 34.2008 12.5132 35.2892 12.4588 36.7875H11.0053C9.65719 36.5442 8.26999 36.4225 6.97119 36.0258C5.70809 35.6408 4.51639 35.0108 3.33149 34.4142C2.73139 34.1125 2.45599 33.5642 2.52909 32.8425C2.68889 31.2525 2.69909 25.6808 2.94729 24.1058C3.26349 22.0975 4.45349 20.6775 6.42379 19.9542C7.11229 19.7025 7.80929 19.4692 8.51819 19.2808C9.46509 19.0292 10.2913 18.9858 11.2909 19.5458C12.8464 20.4143 14.5464 20.2993 16.1257 19.3758C16.107 19.6142 16.0968 19.8542 16.0968 20.0975C16.0968 22.8442 17.3276 25.3125 19.2775 27.0025Z" fill="#0B4870"/>
<path d="M20.4352 10.326C20.4352 11.121 20.2975 11.8827 20.0459 12.5927H20.0442C18.708 13.5293 17.6319 14.7993 16.9417 16.2793C15.9047 16.8728 14.6977 17.211 13.4125 17.211C9.53309 17.211 6.38979 14.1277 6.38979 10.326C6.38979 6.52268 9.53309 3.44084 13.4125 3.44084C17.2902 3.44084 20.4352 6.52251 20.4352 10.326Z" fill="#0B4870"/>
<path fill-rule="evenodd" clip-rule="evenodd" d="M47.5961 34.4825C46.0304 35.6192 44.2148 36.0827 42.3431 36.4008C41.5594 36.5343 40.7757 36.6593 39.992 36.7875H38.7612C38.7646 35.8842 38.7544 35.2458 38.7119 34.8392C38.4892 32.666 37.8772 31.0592 36.7909 29.7825C35.708 28.5108 34.2052 27.6327 32.0649 27.0175C31.9748 26.9908 31.883 26.9658 31.7929 26.9408C33.702 25.2542 34.9039 22.811 34.9039 20.0975C34.9039 19.8192 34.892 19.5425 34.8648 19.2708C35.0603 19.3392 35.2609 19.4292 35.4683 19.5457C37.0799 20.4473 38.8496 20.2892 40.4782 19.2692C40.7383 19.1058 41.1191 19.0125 41.4217 19.0507C42.117 19.139 42.8089 19.2907 43.4838 19.4842C46.7393 20.4207 48.0925 22.0008 48.4325 25.3023C48.5515 26.4575 48.3458 31.5873 48.4699 32.7407C48.5549 33.5392 48.203 34.0425 47.5961 34.4825Z" fill="#0B4870"/>
<path d="M44.6109 10.326C44.6109 14.1277 41.4676 17.211 37.5882 17.211C36.3013 17.211 35.096 16.8729 34.059 16.281V16.2794C33.3705 14.7994 32.2927 13.531 30.9565 12.5944C30.7032 11.8844 30.5655 11.121 30.5655 10.3262C30.5655 6.52288 33.7088 3.44105 37.5882 3.44105C41.4676 3.44105 44.6109 6.52255 44.6109 10.326Z" fill="#0B4870"/>
<path fill-rule="evenodd" clip-rule="evenodd" d="M35.5074 44.2558C33.9417 45.391 32.1261 45.8543 30.2544 46.1725C29.4724 46.306 28.687 46.431 27.9033 46.5592H23.094C21.7459 46.3175 20.3587 46.1943 19.0599 45.7992C17.7968 45.4125 16.6051 44.7823 15.4202 44.1875C14.8201 43.8842 14.5447 43.3358 14.6178 42.6142C14.7198 41.6008 14.7606 38.9692 14.8388 36.7875C14.8864 35.5442 14.9442 34.4475 15.0343 33.8775C15.3505 31.8708 16.5405 30.4492 18.5125 29.7258C19.1993 29.4742 19.898 29.2408 20.6052 29.0542C21.0132 28.946 21.3974 28.876 21.7833 28.876C22.295 28.876 22.8101 28.9993 23.3796 29.3175C23.672 29.4808 23.9661 29.6092 24.2653 29.7027C24.7039 29.8427 25.1476 29.9093 25.593 29.9093C26.0095 29.9093 26.4277 29.8508 26.8425 29.736C27.3661 29.591 27.8863 29.3575 28.3912 29.041C28.6105 28.9027 28.9182 28.8143 29.1902 28.8143C29.2395 28.8143 29.2871 28.8177 29.333 28.8227C30.0283 28.911 30.7219 29.0643 31.3951 29.2577C34.6523 30.1925 36.0038 31.7727 36.3438 35.0742C36.3761 35.396 36.3846 36.0225 36.3812 36.7875C36.3744 38.7725 36.2928 41.6792 36.3812 42.5125C36.4679 43.3125 36.116 43.8142 35.5074 44.2558Z" fill="#0B4870"/>
<path d="M32.5239 20.0975C32.5239 23.4175 30.1269 26.1892 26.936 26.8373C26.4719 26.9323 25.9925 26.9823 25.4995 26.9823C25.0898 26.9823 24.6869 26.9473 24.2959 26.8823C20.9911 26.3223 18.4768 23.4972 18.4768 20.0973C18.4768 19.8207 18.4938 19.549 18.5261 19.2823C18.9375 15.8622 21.904 13.2122 25.4995 13.2122C29.1171 13.2122 32.0955 15.8922 32.4814 19.339C32.5103 19.5875 32.5239 19.8408 32.5239 20.0975Z" fill="#0B4870"/>
</svg>
