<svg width="33" height="33" viewBox="0 0 33 33" fill="none" xmlns="http://www.w3.org/2000/svg">
<path d="M30.7989 24.911C30.2221 25.0335 29.6098 24.7886 29.3004 24.2568C28.991 23.7251 29.0909 23.0806 29.4873 22.652C28.9491 22.1396 28.2885 21.7496 27.5537 21.5337C27.3732 22.088 26.8512 22.4908 26.2292 22.4876C25.6072 22.4844 25.0884 22.0783 24.9144 21.5208C24.1764 21.7303 23.5125 22.1138 22.9711 22.6197C23.3643 23.0516 23.4577 23.6993 23.1451 24.2278C22.8325 24.7563 22.217 24.998 21.6401 24.8691C21.5499 25.2236 21.4983 25.5942 21.4951 25.9745C21.4919 26.3548 21.5435 26.7254 21.6305 27.0799C22.2073 26.9574 22.8196 27.2023 23.129 27.7341C23.4384 28.2658 23.3385 28.9104 22.9421 29.339C23.4803 29.8514 24.1409 30.2413 24.8757 30.4572C25.0562 29.9029 25.5782 29.5001 26.2002 29.5033C26.8222 29.5065 27.341 29.9126 27.515 30.4701C28.253 30.2606 28.9169 29.8771 29.4583 29.3712C29.0651 28.9394 28.9717 28.2916 29.2843 27.7631C29.5969 27.2346 30.2124 26.9929 30.7893 27.1218C30.8795 26.7673 30.9311 26.3967 30.9343 26.0164C30.9375 25.6361 30.8859 25.2655 30.7989 24.911ZM26.2099 27.7889C25.2076 27.7856 24.3987 26.98 24.402 25.9874C24.4052 24.998 25.2237 24.1988 26.226 24.2021C27.2282 24.2053 28.0371 25.0109 28.0339 26.0035C28.0274 26.9961 27.2089 27.7921 26.2099 27.7889ZM17.3121 20.3445C17.1284 20.1479 16.9576 19.932 16.7997 19.7064C16.1971 19.4454 15.5815 19.2134 14.9789 19.0136C14.8371 18.9685 13.9702 18.6688 14.5245 16.877H14.5181C14.6083 16.7835 14.6953 16.6868 14.7823 16.5934C14.8951 16.5192 14.995 16.4322 15.1014 16.3517C14.9628 16.1196 14.8436 15.865 14.7598 15.5943C14.4182 14.4825 14.6663 13.3771 15.3302 12.6778C15.4913 10.7442 16.6644 9.09102 18.3208 8.23379C18.2789 8.21123 18.2402 8.18867 18.1919 8.17256C18.1081 8.14678 18.0211 8.14033 17.9341 8.14355C17.9244 7.65371 17.8954 7.354 17.8954 7.354C17.8954 4.44717 15.4881 2.06885 12.5458 2.06885H10.9377C7.99541 2.06885 5.58808 4.44717 5.58808 7.354C5.58808 7.354 5.55908 7.65371 5.54941 8.14355C5.4624 8.14033 5.37539 8.14678 5.2916 8.17256C4.70185 8.3498 4.44404 9.19736 4.71152 10.0675C4.9081 10.7023 5.33027 11.1664 5.77177 11.305C6.1166 13.3449 6.95771 15.633 8.93642 16.7416C9.01054 16.8222 9.08144 16.9027 9.15879 16.9801C9.72597 18.4464 8.66572 18.9685 8.45302 19.0458C5.52041 20.0932 1.98515 22.0042 1.98515 23.8895V24.5952C1.98515 27.1637 7.10273 27.747 11.7691 27.747C12.4104 27.747 13.0582 27.7341 13.6995 27.7083C13.1098 27.1572 12.7295 26.4386 12.7295 25.4911V24.9852C12.7295 22.7905 15.2238 21.2501 17.3121 20.3445Z" fill="#0B4870"/>
<path d="M21.7497 21.347C22.246 20.8829 22.8164 20.5091 23.4319 20.219C23.4513 20.1353 23.4642 20.0579 23.4932 19.9612H23.4867C23.5576 19.8871 23.6253 19.813 23.693 19.7389C24.9756 18.9074 25.5396 17.3573 25.7748 15.9651C26.0906 15.8652 26.3968 15.5333 26.5354 15.0821C26.7287 14.4602 26.5418 13.8511 26.1196 13.7254C26.0584 13.7061 25.9972 13.7222 25.9359 13.7254C25.9295 13.3677 25.9102 13.1421 25.9102 13.1421C25.9102 11.0603 24.186 9.35547 22.0752 9.35547H20.9215C18.8139 9.35547 17.0865 11.0603 17.0865 13.1421C17.0865 13.1421 17.0672 13.3677 17.0607 13.7254C16.9995 13.7222 16.9351 13.7093 16.8771 13.7254C16.4549 13.8511 16.2712 14.4602 16.4613 15.0821C16.5999 15.5365 16.9061 15.8652 17.2219 15.9651C17.4668 17.4089 18.0662 19.0138 19.4487 19.8227C19.5132 19.8936 19.5776 19.9677 19.6485 20.0353C20.0546 21.0859 19.294 21.4598 19.1426 21.5145C17.0414 22.2654 14.5084 23.6351 14.5084 24.9853V25.4913C14.5084 27.0543 17.151 27.5893 19.9934 27.7182C19.9644 27.6408 19.9257 27.5731 19.9063 27.4958C19.7807 26.9834 19.7194 26.471 19.7227 25.9683C19.7259 25.4687 19.7903 24.9563 19.9192 24.4439C20.09 23.7704 20.6347 23.2838 21.2792 23.1517C21.1782 22.8372 21.1689 22.5005 21.2522 22.1809C21.3355 21.8614 21.5081 21.5721 21.7497 21.347Z" fill="#0B4870"/>
</svg>
