<svg width="33" height="33" viewBox="0 0 33 33" fill="none" xmlns="http://www.w3.org/2000/svg">
<path d="M16.5 1.23755L2.75035 5.91221V17.7375C2.75035 22.5504 5.50069 26.8125 10.0382 28.875L16.2257 31.7625L22.8257 28.7379C27.3632 26.8125 30.2507 22.4132 30.2507 17.4632V5.91324L16.501 1.23858L16.5 1.23755ZM27.5003 17.4622C27.5003 21.3119 25.3007 24.75 21.7253 26.2619L16.2257 28.7369L11.1385 26.399C7.70138 24.8862 5.50069 21.449 5.50069 17.7365V7.83652L16.501 4.12402L27.5014 7.83652V17.4612L27.5003 17.4622Z" fill="#0B4870"/>
<path d="M11.0003 12.3751C11.0003 14.9873 12.7875 17.0498 15.1253 17.7376V24.7501H17.8757V23.3755H19.2503V20.6251H17.8757V17.7376C20.2135 17.188 22.0007 14.9873 22.0007 12.3751C22.0007 9.35049 19.5257 6.87549 16.501 6.87549C13.4764 6.87549 11.0014 9.35049 11.0014 12.3751H11.0003ZM19.2503 12.3751C19.2503 13.888 18.0128 15.1255 16.5 15.1255C14.9872 15.1255 13.7497 13.888 13.7497 12.3751C13.7497 10.8623 14.9872 9.6248 16.5 9.6248C18.0128 9.6248 19.2503 10.8623 19.2503 12.3751Z" fill="#0B4870"/>
</svg>
