<svg width="51" height="49" viewBox="0 0 51 49" fill="none" xmlns="http://www.w3.org/2000/svg">
<path d="M21.0973 22.0596C21.0973 22.6912 20.5644 23.1984 19.9119 23.1984C19.2545 23.1984 18.7266 22.6864 18.7266 22.0596V17.9061C18.7266 17.2744 19.2595 16.7672 19.9119 16.7672C20.5693 16.7672 21.0973 17.2792 21.0973 17.9061V22.0596Z" fill="#0B4870"/>
<path d="M42.6527 31.6299C38.5289 29.0363 38.2151 26.6677 38.2151 17.9826C38.2151 10.5656 33.1151 7.89072 27.9404 7.27822C27.9803 7.10117 28.0102 6.89062 28.0102 6.69443C28.0102 5.30674 26.8397 4.16787 25.3954 4.16787C23.9511 4.16787 22.7807 5.2876 22.7807 6.67529C22.7807 6.87148 22.8056 7.04853 22.8504 7.23037C17.6757 7.83808 12.8147 10.4651 12.8147 17.8869C12.8147 26.572 12.501 29.0363 8.37714 31.6299C4.25332 34.2187 4.25332 39.7407 7.42089 39.7407H43.604C46.7766 39.7407 46.7766 34.2187 42.6527 31.6299ZM44.3162 37.7166C44.122 38.3387 43.7883 38.3387 43.609 38.3387H7.42089C7.2416 38.3387 6.90791 38.3387 6.71367 37.7166C6.36005 36.5825 6.89794 34.233 9.17402 32.807C14.03 29.7589 14.274 26.5911 14.274 17.8917C14.274 12.3553 17.1378 9.32627 23.0297 8.63242L24.23 8.44101L23.8614 6.91933C23.8415 6.82363 23.8315 6.75185 23.8315 6.68008C23.8315 6.07236 24.3545 5.06748 25.4004 5.06748C26.4413 5.06748 26.9692 6.08193 26.9692 6.69922C26.9692 6.78057 26.9543 6.88584 26.9344 6.97197L26.5758 8.48887L27.7661 8.68027C33.7327 9.38369 36.7559 12.518 36.7559 17.9874C36.7559 26.6198 37.0049 29.7589 41.8559 32.8118C44.1269 34.233 44.6648 36.5825 44.3162 37.7166Z" fill="#0B4870"/>
<path d="M43.604 40.1714H7.4209C6.19072 40.1714 5.26435 39.468 4.88086 38.2382C4.55713 37.1998 4.67666 35.8982 5.19961 34.6589C5.608 33.6971 6.44472 32.3237 8.12812 31.271C11.9979 28.8401 12.3665 26.7155 12.3665 17.8917C12.3665 14.3603 13.4522 11.5992 15.5889 9.69472C17.2474 8.21611 19.5185 7.26865 22.3424 6.8667C22.3374 6.80449 22.3374 6.74228 22.3374 6.68008C22.3374 5.05791 23.712 3.74199 25.4004 3.74199C27.0888 3.74199 28.4634 5.06748 28.4634 6.69922C28.4634 6.76621 28.4584 6.83799 28.4534 6.91455C31.3022 7.3165 33.6082 8.27353 35.3215 9.76172C37.5428 11.6949 38.6634 14.4607 38.6634 17.9826C38.6634 26.7299 39.027 28.8353 42.8968 31.271C44.5802 32.3285 45.4169 33.6971 45.8253 34.6637C46.3482 35.903 46.4678 37.2094 46.144 38.2477C45.7655 39.468 44.8392 40.1714 43.604 40.1714ZM25.3954 4.59853C24.2001 4.59853 23.2289 5.53164 23.2289 6.67529C23.2289 6.82363 23.2488 6.96718 23.2887 7.13467L23.4032 7.59883L22.9102 7.65625C16.5103 8.4123 13.268 11.8528 13.268 17.8821C13.268 22.5716 13.1634 25.1556 12.5757 27.1558C11.9681 29.2229 10.8624 30.5771 8.62119 31.984C7.13203 32.9171 6.39492 34.1277 6.03632 34.9795C5.58808 36.0418 5.48349 37.1376 5.74746 37.9894C5.93173 38.5923 6.375 39.3053 7.42588 39.3053H43.614C44.6648 39.3053 45.1081 38.5875 45.2974 37.9894C45.5613 37.1376 45.4567 36.0418 45.0085 34.9795C44.6499 34.1277 43.9078 32.9219 42.4187 31.984C40.1774 30.5771 39.0718 29.2373 38.4691 27.2036C37.8814 25.2273 37.7769 22.6529 37.7769 17.9778C37.7769 10.4508 32.4029 8.23525 27.8956 7.69931L27.4025 7.64189L27.5121 7.17773C27.547 7.01982 27.5719 6.84277 27.5719 6.68965C27.5619 5.54121 26.5907 4.59853 25.3954 4.59853ZM43.604 38.7693H7.4209C7.21172 38.7693 6.56923 38.7693 6.28535 37.841C6.06123 37.1232 6.16084 36.1423 6.54433 35.214C6.86806 34.434 7.54541 33.319 8.92998 32.4481C11.2658 30.9791 12.4811 29.5053 13.1136 27.3519C13.776 25.1125 13.8258 22.0213 13.8258 17.8917C13.8258 15.0254 14.5928 12.762 16.1118 11.1542C17.6209 9.55595 19.9269 8.56064 22.9649 8.20175L23.6821 8.08691L23.4231 7.01504C23.3933 6.88584 23.3783 6.78056 23.3783 6.67529C23.3783 5.83789 24.0955 4.63203 25.3954 4.63203C26.6953 4.63203 27.4125 5.85224 27.4125 6.69443C27.4125 6.80449 27.3976 6.94326 27.3677 7.06289L27.1137 8.12998L27.8259 8.24482C30.8988 8.60849 33.2496 9.61816 34.8234 11.2451C36.4022 12.8769 37.1991 15.145 37.1991 17.9826C37.1991 22.0739 37.2489 25.146 37.9113 27.3663C38.5488 29.5053 39.7591 30.9743 42.0949 32.4434C43.4845 33.3143 44.1618 34.4292 44.4806 35.2092C44.8641 36.1375 44.9637 37.1185 44.7395 37.8362C44.4557 38.7693 43.8182 38.7693 43.604 38.7693ZM25.3954 5.49336C24.5985 5.49336 24.2748 6.33076 24.2748 6.67529C24.2748 6.71357 24.2798 6.75664 24.2947 6.81884L24.7679 8.78554L23.0795 9.05351C17.3818 9.72822 14.7223 12.5323 14.7223 17.8869C14.7223 22.2175 14.6725 25.2321 13.9752 27.5816C13.2729 29.9551 11.9531 31.5725 9.41806 33.1659C8.22773 33.9124 7.65 34.8646 7.37607 35.5298C7.00752 36.4198 7.01748 37.1807 7.14199 37.5922C7.2167 37.8267 7.2914 37.8841 7.30634 37.8937C7.32627 37.9032 7.35615 37.908 7.4209 37.908H43.604C43.6688 37.908 43.6986 37.908 43.7186 37.8937C43.7335 37.8841 43.8132 37.8314 43.8829 37.5922C44.0124 37.1759 44.0174 36.4198 43.6488 35.5298C43.3749 34.8646 42.7972 33.9124 41.6019 33.1659C39.0668 31.5725 37.747 29.9646 37.0447 27.6056C36.3475 25.2704 36.2977 22.2797 36.2977 17.9826C36.2977 12.762 33.404 9.77607 27.7014 9.10136L27.6814 9.09658L26.0229 8.8334L26.4861 6.87148C26.5011 6.81406 26.511 6.74228 26.511 6.69443C26.516 6.34033 26.1923 5.49336 25.3954 5.49336Z" fill="#0B4870"/>
<path d="M25.5149 44.8991C23.4032 44.8991 21.6401 43.3583 21.3961 41.3868H29.6338C29.3848 43.3631 27.6267 44.8991 25.5149 44.8991Z" fill="#0B4870"/>
<path d="M25.5149 45.1384C23.2887 45.1384 21.416 43.5353 21.1471 41.4155L21.1122 41.1476H29.9127L29.8778 41.4155C29.6139 43.5401 27.7362 45.1384 25.5149 45.1384ZM21.685 41.6261C22.0386 43.3727 23.6373 44.6599 25.5149 44.6599C27.3926 44.6599 28.9913 43.3727 29.3449 41.6261H21.685Z" fill="#0B4870"/>
</svg>
