<svg width="79" height="67" viewBox="0 0 79 67" fill="none" xmlns="http://www.w3.org/2000/svg">
<path d="M46.3582 20.3288H24.1505C23.1492 20.329 22.1889 20.6664 21.4808 21.2668C20.7726 21.8672 20.3744 22.6815 20.3738 23.5307V50.555C20.3744 51.4043 20.7725 52.2187 21.4807 52.8192C22.1888 53.4198 23.149 53.7574 24.1505 53.758H46.3582C47.3595 53.7571 48.3194 53.4194 49.0272 52.8188C49.7351 52.2183 50.133 51.4041 50.1337 50.555V23.5307C50.1294 22.6826 49.7302 21.8703 49.0231 21.2706C48.316 20.6709 47.3582 20.3324 46.3582 20.3288ZM47.4832 50.5464C47.4832 50.8023 47.3633 51.0477 47.15 51.2286C46.9366 51.4095 46.6473 51.5112 46.3456 51.5112H24.1416C23.8399 51.5112 23.5506 51.4095 23.3372 51.2286C23.1239 51.0477 23.0041 50.8023 23.0041 50.5464V23.5329C23.0041 23.277 23.1239 23.0316 23.3372 22.8507C23.5506 22.6697 23.8399 22.5681 24.1416 22.5681H46.3494C46.6511 22.5681 46.9404 22.6697 47.1538 22.8507C47.3671 23.0316 47.487 23.277 47.487 23.5329L47.4832 50.5464Z" fill="#0B4870"/>
<path d="M54.8558 13.2431H32.6418C31.6407 13.2436 30.6807 13.5812 29.9729 14.1815C29.265 14.7819 28.867 15.596 28.8663 16.445C28.8608 16.595 28.8909 16.7443 28.9548 16.8842C29.0187 17.0241 29.1151 17.1517 29.2382 17.2594C29.3613 17.3671 29.5087 17.4528 29.6716 17.5113C29.8345 17.5697 30.0096 17.5999 30.1865 17.5999C30.3634 17.5999 30.5385 17.5697 30.7014 17.5113C30.8643 17.4528 31.0117 17.3671 31.1348 17.2594C31.258 17.1517 31.3543 17.0241 31.4182 16.8842C31.4821 16.7443 31.5122 16.595 31.5067 16.445C31.5067 16.1891 31.6266 15.9438 31.8399 15.7628C32.0532 15.5819 32.3426 15.4803 32.6443 15.4803H54.8558C55.1575 15.4803 55.4469 15.5819 55.6602 15.7628C55.8736 15.9438 55.9934 16.1891 55.9934 16.445V43.4693C55.9934 43.7251 55.8736 43.9705 55.6602 44.1515C55.4469 44.3324 55.1575 44.434 54.8558 44.434C54.5055 44.434 54.1696 44.5521 53.9219 44.7621C53.6742 44.9722 53.535 45.2572 53.535 45.5542C53.535 45.8513 53.6742 46.1363 53.9219 46.3464C54.1696 46.5564 54.5055 46.6745 54.8558 46.6745C55.8572 46.6742 56.8174 46.3368 57.5256 45.7364C58.2337 45.136 58.6319 44.3217 58.6326 43.4725V16.445C58.6319 15.5958 58.2337 14.7815 57.5256 14.1811C56.8174 13.5807 55.8572 13.2433 54.8558 13.2431Z" fill="#0B4870"/>
</svg>
