<svg width="51" height="49" viewBox="0 0 51 49" fill="none" xmlns="http://www.w3.org/2000/svg">
<path d="M2.70299 45.08C2.70299 45.4699 2.86418 45.8438 3.15111 46.1194C3.43804 46.3951 3.82721 46.55 4.23299 46.55H24.123C24.3239 46.55 24.5229 46.512 24.7085 46.4381C24.8941 46.3642 25.0628 46.2559 25.2049 46.1194C25.3469 45.9829 25.4596 45.8209 25.5365 45.6425C25.6134 45.4642 25.653 45.273 25.653 45.08V3.92C25.653 3.72695 25.6134 3.5358 25.5365 3.35745C25.4596 3.1791 25.3469 3.01705 25.2049 2.88055C25.0628 2.74405 24.8941 2.63577 24.7085 2.56189C24.5229 2.48802 24.3239 2.45 24.123 2.45H4.23299C3.82721 2.45 3.43804 2.60487 3.15111 2.88055C2.86418 3.15623 2.70299 3.53013 2.70299 3.92V45.08ZM16.473 10.535C16.473 10.1451 16.6342 9.77123 16.9211 9.49555C17.208 9.21987 17.5972 9.065 18.003 9.065H19.533C19.7339 9.065 19.9329 9.10302 20.1185 9.1769C20.3041 9.25077 20.4728 9.35905 20.6149 9.49555C20.7569 9.63205 20.8696 9.7941 20.9465 9.97245C21.0234 10.1508 21.063 10.342 21.063 10.535V12.005C21.063 12.198 21.0234 12.3892 20.9465 12.5675C20.8696 12.7459 20.7569 12.9079 20.6149 13.0444C20.4728 13.1809 20.3041 13.2892 20.1185 13.3631C19.9329 13.437 19.7339 13.475 19.533 13.475H18.003C17.8021 13.475 17.6031 13.437 17.4175 13.3631C17.2319 13.2892 17.0632 13.1809 16.9211 13.0444C16.779 12.9079 16.6663 12.7459 16.5895 12.5675C16.5126 12.3892 16.473 12.198 16.473 12.005V10.535ZM16.473 20.4575C16.473 20.0676 16.6342 19.6937 16.9211 19.4181C17.208 19.1424 17.5972 18.9875 18.003 18.9875H19.533C19.7339 18.9875 19.9329 19.0255 20.1185 19.0994C20.3041 19.1733 20.4728 19.2815 20.6149 19.4181C20.7569 19.5546 20.8696 19.7166 20.9465 19.895C21.0234 20.0733 21.063 20.2645 21.063 20.4575V22.05C21.063 22.243 21.0234 22.4342 20.9465 22.6125C20.8696 22.7909 20.7569 22.9529 20.6149 23.0894C20.4728 23.2259 20.3041 23.3342 20.1185 23.4081C19.9329 23.482 19.7339 23.52 19.533 23.52H18.003C17.8021 23.52 17.6031 23.482 17.4175 23.4081C17.2319 23.3342 17.0632 23.2259 16.9211 23.0894C16.779 22.9529 16.6663 22.7909 16.5895 22.6125C16.5126 22.4342 16.473 22.243 16.473 22.05V20.4575ZM16.473 30.38C16.473 29.9901 16.6342 29.6162 16.9211 29.3406C17.208 29.0649 17.5972 28.91 18.003 28.91H19.533C19.7339 28.91 19.9329 28.948 20.1185 29.0219C20.3041 29.0958 20.4728 29.204 20.6149 29.3406C20.7569 29.4771 20.8696 29.6391 20.9465 29.8175C21.0234 29.9958 21.063 30.187 21.063 30.38V31.85C21.063 32.043 21.0234 32.2342 20.9465 32.4125C20.8696 32.5909 20.7569 32.7529 20.6149 32.8894C20.4728 33.0259 20.3041 33.1342 20.1185 33.2081C19.9329 33.282 19.7339 33.32 19.533 33.32H18.003C17.8021 33.32 17.6031 33.282 17.4175 33.2081C17.2319 33.1342 17.0632 33.0259 16.9211 32.8894C16.779 32.7529 16.6663 32.5909 16.5895 32.4125C16.5126 32.2342 16.473 32.043 16.473 31.85V30.38ZM7.29299 10.535C7.29299 10.1451 7.45418 9.77123 7.74111 9.49555C8.02804 9.21987 8.41721 9.065 8.82299 9.065H10.353C10.7588 9.065 11.1479 9.21987 11.4349 9.49555C11.7218 9.77123 11.883 10.1451 11.883 10.535V12.005C11.883 12.3949 11.7218 12.7688 11.4349 13.0444C11.1479 13.3201 10.7588 13.475 10.353 13.475H8.82299C8.41721 13.475 8.02804 13.3201 7.74111 13.0444C7.45418 12.7688 7.29299 12.3949 7.29299 12.005V10.535ZM7.29299 20.4575C7.29299 20.0676 7.45418 19.6937 7.74111 19.4181C8.02804 19.1424 8.41721 18.9875 8.82299 18.9875H10.353C10.7588 18.9875 11.1479 19.1424 11.4349 19.4181C11.7218 19.6937 11.883 20.0676 11.883 20.4575V22.05C11.883 22.4399 11.7218 22.8138 11.4349 23.0894C11.1479 23.3651 10.7588 23.52 10.353 23.52H8.82299C8.41721 23.52 8.02804 23.3651 7.74111 23.0894C7.45418 22.8138 7.29299 22.4399 7.29299 22.05V20.4575ZM7.29299 30.38C7.29299 29.9901 7.45418 29.6162 7.74111 29.3406C8.02804 29.0649 8.41721 28.91 8.82299 28.91H10.353C10.7588 28.91 11.1479 29.0649 11.4349 29.3406C11.7218 29.6162 11.883 29.9901 11.883 30.38V31.85C11.883 32.2399 11.7218 32.6138 11.4349 32.8894C11.1479 33.1651 10.7588 33.32 10.353 33.32H8.82299C8.41721 33.32 8.02804 33.1651 7.74111 32.8894C7.45418 32.6138 7.29299 32.2399 7.29299 31.85V30.38Z" fill="#0B4870"/>
<path d="M29.478 23.3975C29.0722 23.3975 28.683 23.5524 28.3961 23.8281C28.1092 24.1037 27.948 24.4776 27.948 24.8675V45.08C27.948 45.4699 28.1092 45.8438 28.3961 46.1194C28.683 46.3951 29.0722 46.55 29.478 46.55H32.1555C32.5613 46.55 32.9504 46.3951 33.2374 46.1194C33.5243 45.8438 33.6855 45.4699 33.6855 45.08V37.338C33.6855 37.145 33.7251 36.9538 33.802 36.7755C33.8789 36.5971 33.9915 36.4351 34.1336 36.2985C34.2757 36.162 34.4444 36.0538 34.63 35.9799C34.8156 35.906 35.0146 35.868 35.2155 35.868H41.3355C41.7413 35.868 42.1304 36.0229 42.4174 36.2985C42.7043 36.5742 42.8655 36.9481 42.8655 37.338V45.08C42.8655 45.4699 43.0267 45.8438 43.3136 46.1194C43.6006 46.3951 43.9897 46.55 44.3955 46.55H47.073C47.2739 46.55 47.4729 46.512 47.6585 46.4381C47.8441 46.3642 48.0128 46.2559 48.1549 46.1194C48.297 45.9829 48.4097 45.8209 48.4865 45.6425C48.5634 45.4642 48.603 45.273 48.603 45.08V24.8675C48.603 24.6745 48.5634 24.4833 48.4865 24.305C48.4097 24.1266 48.297 23.9646 48.1549 23.8281C48.0128 23.6915 47.8441 23.5833 47.6585 23.5094C47.4729 23.4355 47.2739 23.3975 47.073 23.3975H29.478Z" fill="#0B4870"/>
</svg>
