<svg width="25" height="26" viewBox="0 0 25 26" fill="none" xmlns="http://www.w3.org/2000/svg">
<path d="M10.3448 0H9.48276V0.875862H10.3448V0Z" fill="#0B4870"/>
<path d="M11.2069 0H10.3448V0.875862H11.2069V0Z" fill="#0B4870"/>
<path d="M13.7931 0H12.931V0.875862H13.7931V0Z" fill="#0B4870"/>
<path d="M15.5172 0H14.6552V0.875862H15.5172V0Z" fill="#0B4870"/>
<path d="M16.3793 0H15.5172V0.875862H16.3793V0Z" fill="#0B4870"/>
<path d="M17.2414 0H16.3793V0.875862H17.2414V0Z" fill="#0B4870"/>
<path d="M8.62069 0.875854H7.75862V1.75172H8.62069V0.875854Z" fill="#0B4870"/>
<path d="M11.2069 0.875854H10.3448V1.75172H11.2069V0.875854Z" fill="#0B4870"/>
<path d="M12.069 0.875854H11.2069V1.75172H12.069V0.875854Z" fill="#0B4870"/>
<path d="M13.7931 0.875854H12.931V1.75172H13.7931V0.875854Z" fill="#0B4870"/>
<path d="M16.3793 0.875854H15.5172V1.75172H16.3793V0.875854Z" fill="#0B4870"/>
<path d="M11.2069 1.75177H10.3448V2.62763H11.2069V1.75177Z" fill="#0B4870"/>
<path d="M13.7931 1.75177H12.931V2.62763H13.7931V1.75177Z" fill="#0B4870"/>
<path d="M15.5172 1.75177H14.6552V2.62763H15.5172V1.75177Z" fill="#0B4870"/>
<path d="M16.3793 1.75177H15.5172V2.62763H16.3793V1.75177Z" fill="#0B4870"/>
<path d="M17.2414 1.75177H16.3793V2.62763H17.2414V1.75177Z" fill="#0B4870"/>
<path d="M8.62069 2.62762H7.75862V3.50349H8.62069V2.62762Z" fill="#0B4870"/>
<path d="M10.3448 2.62762H9.48276V3.50349H10.3448V2.62762Z" fill="#0B4870"/>
<path d="M11.2069 2.62762H10.3448V3.50349H11.2069V2.62762Z" fill="#0B4870"/>
<path d="M12.069 2.62762H11.2069V3.50349H12.069V2.62762Z" fill="#0B4870"/>
<path d="M16.3793 2.62762H15.5172V3.50349H16.3793V2.62762Z" fill="#0B4870"/>
<path d="M17.2414 2.62762H16.3793V3.50349H17.2414V2.62762Z" fill="#0B4870"/>
<path d="M18.1034 2.62762H17.2414V3.50349H18.1034V2.62762Z" fill="#0B4870"/>
<path d="M8.62069 3.50354H7.75862V4.3794H8.62069V3.50354Z" fill="#0B4870"/>
<path d="M9.48277 3.50354H8.6207V4.3794H9.48277V3.50354Z" fill="#0B4870"/>
<path d="M12.931 3.50354H12.069V4.3794H12.931V3.50354Z" fill="#0B4870"/>
<path d="M13.7931 3.50354H12.931V4.3794H13.7931V3.50354Z" fill="#0B4870"/>
<path d="M14.6552 3.50354H13.7931V4.3794H14.6552V3.50354Z" fill="#0B4870"/>
<path d="M16.3793 3.50354H15.5172V4.3794H16.3793V3.50354Z" fill="#0B4870"/>
<path d="M7.75863 4.37927H6.89656V5.25513H7.75863V4.37927Z" fill="#0B4870"/>
<path d="M8.62069 4.37927H7.75862V5.25513H8.62069V4.37927Z" fill="#0B4870"/>
<path d="M13.7931 4.37927H12.931V5.25513H13.7931V4.37927Z" fill="#0B4870"/>
<path d="M17.2414 4.37927H16.3793V5.25513H17.2414V4.37927Z" fill="#0B4870"/>
<path d="M7.75863 5.25519H6.89656V6.13105H7.75863V5.25519Z" fill="#0B4870"/>
<path d="M9.48277 5.25519H8.6207V6.13105H9.48277V5.25519Z" fill="#0B4870"/>
<path d="M11.2069 5.25519H10.3448V6.13105H11.2069V5.25519Z" fill="#0B4870"/>
<path d="M12.931 5.25519H12.069V6.13105H12.931V5.25519Z" fill="#0B4870"/>
<path d="M14.6552 5.25519H13.7931V6.13105H14.6552V5.25519Z" fill="#0B4870"/>
<path d="M16.3793 5.25519H15.5172V6.13105H16.3793V5.25519Z" fill="#0B4870"/>
<path d="M18.1034 5.25519H17.2414V6.13105H18.1034V5.25519Z" fill="#0B4870"/>
<path d="M9.48277 6.13104H8.6207V7.0069H9.48277V6.13104Z" fill="#0B4870"/>
<path d="M10.3448 6.13104H9.48276V7.0069H10.3448V6.13104Z" fill="#0B4870"/>
<path d="M11.2069 6.13104H10.3448V7.0069H11.2069V6.13104Z" fill="#0B4870"/>
<path d="M12.069 6.13104H11.2069V7.0069H12.069V6.13104Z" fill="#0B4870"/>
<path d="M13.7931 6.13104H12.931V7.0069H13.7931V6.13104Z" fill="#0B4870"/>
<path d="M15.5172 6.13104H14.6552V7.0069H15.5172V6.13104Z" fill="#0B4870"/>
<path d="M16.3793 6.13104H15.5172V7.0069H16.3793V6.13104Z" fill="#0B4870"/>
<path d="M17.2414 6.13104H16.3793V7.0069H17.2414V6.13104Z" fill="#0B4870"/>
<path d="M18.1034 6.13104H17.2414V7.0069H18.1034V6.13104Z" fill="#0B4870"/>
<path d="M0.862069 7.0069H0V7.88276H0.862069V7.0069Z" fill="#0B4870"/>
<path d="M3.44827 7.0069H2.5862V7.88276H3.44827V7.0069Z" fill="#0B4870"/>
<path d="M5.17242 7.0069H4.31035V7.88276H5.17242V7.0069Z" fill="#0B4870"/>
<path d="M6.03448 7.0069H5.17241V7.88276H6.03448V7.0069Z" fill="#0B4870"/>
<path d="M7.75863 7.0069H6.89656V7.88276H7.75863V7.0069Z" fill="#0B4870"/>
<path d="M9.48277 7.0069H8.6207V7.88276H9.48277V7.0069Z" fill="#0B4870"/>
<path d="M11.2069 7.0069H10.3448V7.88276H11.2069V7.0069Z" fill="#0B4870"/>
<path d="M12.931 7.0069H12.069V7.88276H12.931V7.0069Z" fill="#0B4870"/>
<path d="M17.2414 7.0069H16.3793V7.88276H17.2414V7.0069Z" fill="#0B4870"/>
<path d="M18.9655 7.0069H18.1034V7.88276H18.9655V7.0069Z" fill="#0B4870"/>
<path d="M20.6897 7.0069H19.8276V7.88276H20.6897V7.0069Z" fill="#0B4870"/>
<path d="M0.862069 7.88275H0V8.75861H0.862069V7.88275Z" fill="#0B4870"/>
<path d="M1.72414 7.88275H0.862076V8.75861H1.72414V7.88275Z" fill="#0B4870"/>
<path d="M3.44827 7.88275H2.5862V8.75861H3.44827V7.88275Z" fill="#0B4870"/>
<path d="M5.17242 7.88275H4.31035V8.75861H5.17242V7.88275Z" fill="#0B4870"/>
<path d="M6.89655 7.88275H6.03448V8.75861H6.89655V7.88275Z" fill="#0B4870"/>
<path d="M11.2069 7.88275H10.3448V8.75861H11.2069V7.88275Z" fill="#0B4870"/>
<path d="M12.069 7.88275H11.2069V8.75861H12.069V7.88275Z" fill="#0B4870"/>
<path d="M14.6552 7.88275H13.7931V8.75861H14.6552V7.88275Z" fill="#0B4870"/>
<path d="M16.3793 7.88275H15.5172V8.75861H16.3793V7.88275Z" fill="#0B4870"/>
<path d="M18.1034 7.88275H17.2414V8.75861H18.1034V7.88275Z" fill="#0B4870"/>
<path d="M19.8276 7.88275H18.9655V8.75861H19.8276V7.88275Z" fill="#0B4870"/>
<path d="M22.4138 7.88275H21.5517V8.75861H22.4138V7.88275Z" fill="#0B4870"/>
<path d="M25 7.88275H24.1379V8.75861H25V7.88275Z" fill="#0B4870"/>
<path d="M0.862069 8.75867H0V9.63453H0.862069V8.75867Z" fill="#0B4870"/>
<path d="M1.72414 8.75867H0.862076V9.63453H1.72414V8.75867Z" fill="#0B4870"/>
<path d="M2.58621 8.75867H1.72414V9.63453H2.58621V8.75867Z" fill="#0B4870"/>
<path d="M3.44827 8.75867H2.5862V9.63453H3.44827V8.75867Z" fill="#0B4870"/>
<path d="M4.31036 8.75867H3.44829V9.63453H4.31036V8.75867Z" fill="#0B4870"/>
<path d="M6.03448 8.75867H5.17241V9.63453H6.03448V8.75867Z" fill="#0B4870"/>
<path d="M10.3448 8.75867H9.48276V9.63453H10.3448V8.75867Z" fill="#0B4870"/>
<path d="M12.069 8.75867H11.2069V9.63453H12.069V8.75867Z" fill="#0B4870"/>
<path d="M12.931 8.75867H12.069V9.63453H12.931V8.75867Z" fill="#0B4870"/>
<path d="M14.6552 8.75867H13.7931V9.63453H14.6552V8.75867Z" fill="#0B4870"/>
<path d="M16.3793 8.75867H15.5172V9.63453H16.3793V8.75867Z" fill="#0B4870"/>
<path d="M17.2414 8.75867H16.3793V9.63453H17.2414V8.75867Z" fill="#0B4870"/>
<path d="M18.1034 8.75867H17.2414V9.63453H18.1034V8.75867Z" fill="#0B4870"/>
<path d="M22.4138 8.75867H21.5517V9.63453H22.4138V8.75867Z" fill="#0B4870"/>
<path d="M23.2759 8.75867H22.4138V9.63453H23.2759V8.75867Z" fill="#0B4870"/>
<path d="M24.1379 8.75867H23.2759V9.63453H24.1379V8.75867Z" fill="#0B4870"/>
<path d="M1.72414 9.63452H0.862076V10.5104H1.72414V9.63452Z" fill="#0B4870"/>
<path d="M2.58621 9.63452H1.72414V10.5104H2.58621V9.63452Z" fill="#0B4870"/>
<path d="M4.31036 9.63452H3.44829V10.5104H4.31036V9.63452Z" fill="#0B4870"/>
<path d="M5.17242 9.63452H4.31035V10.5104H5.17242V9.63452Z" fill="#0B4870"/>
<path d="M6.89655 9.63452H6.03448V10.5104H6.89655V9.63452Z" fill="#0B4870"/>
<path d="M12.069 9.63452H11.2069V10.5104H12.069V9.63452Z" fill="#0B4870"/>
<path d="M13.7931 9.63452H12.931V10.5104H13.7931V9.63452Z" fill="#0B4870"/>
<path d="M16.3793 9.63452H15.5172V10.5104H16.3793V9.63452Z" fill="#0B4870"/>
<path d="M18.1034 9.63452H17.2414V10.5104H18.1034V9.63452Z" fill="#0B4870"/>
<path d="M18.9655 9.63452H18.1034V10.5104H18.9655V9.63452Z" fill="#0B4870"/>
<path d="M20.6897 9.63452H19.8276V10.5104H20.6897V9.63452Z" fill="#0B4870"/>
<path d="M21.5517 9.63452H20.6897V10.5104H21.5517V9.63452Z" fill="#0B4870"/>
<path d="M23.2759 9.63452H22.4138V10.5104H23.2759V9.63452Z" fill="#0B4870"/>
<path d="M24.1379 9.63452H23.2759V10.5104H24.1379V9.63452Z" fill="#0B4870"/>
<path d="M0.862069 10.5104H0V11.3862H0.862069V10.5104Z" fill="#0B4870"/>
<path d="M1.72414 10.5104H0.862076V11.3862H1.72414V10.5104Z" fill="#0B4870"/>
<path d="M5.17242 10.5104H4.31035V11.3862H5.17242V10.5104Z" fill="#0B4870"/>
<path d="M6.03448 10.5104H5.17241V11.3862H6.03448V10.5104Z" fill="#0B4870"/>
<path d="M8.62069 10.5104H7.75862V11.3862H8.62069V10.5104Z" fill="#0B4870"/>
<path d="M9.48277 10.5104H8.6207V11.3862H9.48277V10.5104Z" fill="#0B4870"/>
<path d="M10.3448 10.5104H9.48276V11.3862H10.3448V10.5104Z" fill="#0B4870"/>
<path d="M11.2069 10.5104H10.3448V11.3862H11.2069V10.5104Z" fill="#0B4870"/>
<path d="M12.931 10.5104H12.069V11.3862H12.931V10.5104Z" fill="#0B4870"/>
<path d="M13.7931 10.5104H12.931V11.3862H13.7931V10.5104Z" fill="#0B4870"/>
<path d="M14.6552 10.5104H13.7931V11.3862H14.6552V10.5104Z" fill="#0B4870"/>
<path d="M15.5172 10.5104H14.6552V11.3862H15.5172V10.5104Z" fill="#0B4870"/>
<path d="M16.3793 10.5104H15.5172V11.3862H16.3793V10.5104Z" fill="#0B4870"/>
<path d="M18.1034 10.5104H17.2414V11.3862H18.1034V10.5104Z" fill="#0B4870"/>
<path d="M18.9655 10.5104H18.1034V11.3862H18.9655V10.5104Z" fill="#0B4870"/>
<path d="M19.8276 10.5104H18.9655V11.3862H19.8276V10.5104Z" fill="#0B4870"/>
<path d="M22.4138 10.5104H21.5517V11.3862H22.4138V10.5104Z" fill="#0B4870"/>
<path d="M24.1379 10.5104H23.2759V11.3862H24.1379V10.5104Z" fill="#0B4870"/>
<path d="M25 10.5104H24.1379V11.3862H25V10.5104Z" fill="#0B4870"/>
<path d="M0.862069 11.3863H0V12.2622H0.862069V11.3863Z" fill="#0B4870"/>
<path d="M2.58621 11.3863H1.72414V12.2622H2.58621V11.3863Z" fill="#0B4870"/>
<path d="M5.17242 11.3863H4.31035V12.2622H5.17242V11.3863Z" fill="#0B4870"/>
<path d="M6.89655 11.3863H6.03448V12.2622H6.89655V11.3863Z" fill="#0B4870"/>
<path d="M7.75863 11.3863H6.89656V12.2622H7.75863V11.3863Z" fill="#0B4870"/>
<path d="M8.62069 11.3863H7.75862V12.2622H8.62069V11.3863Z" fill="#0B4870"/>
<path d="M12.069 11.3863H11.2069V12.2622H12.069V11.3863Z" fill="#0B4870"/>
<path d="M12.931 11.3863H12.069V12.2622H12.931V11.3863Z" fill="#0B4870"/>
<path d="M17.2414 11.3863H16.3793V12.2622H17.2414V11.3863Z" fill="#0B4870"/>
<path d="M18.1034 11.3863H17.2414V12.2622H18.1034V11.3863Z" fill="#0B4870"/>
<path d="M18.9655 11.3863H18.1034V12.2622H18.9655V11.3863Z" fill="#0B4870"/>
<path d="M20.6897 11.3863H19.8276V12.2622H20.6897V11.3863Z" fill="#0B4870"/>
<path d="M0.862069 12.2621H0V13.138H0.862069V12.2621Z" fill="#0B4870"/>
<path d="M3.44827 12.2621H2.5862V13.138H3.44827V12.2621Z" fill="#0B4870"/>
<path d="M4.31036 12.2621H3.44829V13.138H4.31036V12.2621Z" fill="#0B4870"/>
<path d="M5.17242 12.2621H4.31035V13.138H5.17242V12.2621Z" fill="#0B4870"/>
<path d="M6.03448 12.2621H5.17241V13.138H6.03448V12.2621Z" fill="#0B4870"/>
<path d="M8.62069 12.2621H7.75862V13.138H8.62069V12.2621Z" fill="#0B4870"/>
<path d="M11.2069 12.2621H10.3448V13.138H11.2069V12.2621Z" fill="#0B4870"/>
<path d="M12.069 12.2621H11.2069V13.138H12.069V12.2621Z" fill="#0B4870"/>
<path d="M12.931 12.2621H12.069V13.138H12.931V12.2621Z" fill="#0B4870"/>
<path d="M14.6552 12.2621H13.7931V13.138H14.6552V12.2621Z" fill="#0B4870"/>
<path d="M18.1034 12.2621H17.2414V13.138H18.1034V12.2621Z" fill="#0B4870"/>
<path d="M19.8276 12.2621H18.9655V13.138H19.8276V12.2621Z" fill="#0B4870"/>
<path d="M22.4138 12.2621H21.5517V13.138H22.4138V12.2621Z" fill="#0B4870"/>
<path d="M23.2759 12.2621H22.4138V13.138H23.2759V12.2621Z" fill="#0B4870"/>
<path d="M24.1379 12.2621H23.2759V13.138H24.1379V12.2621Z" fill="#0B4870"/>
<path d="M25 12.2621H24.1379V13.138H25V12.2621Z" fill="#0B4870"/>
<path d="M0.862069 13.1379H0V14.0137H0.862069V13.1379Z" fill="#0B4870"/>
<path d="M1.72414 13.1379H0.862076V14.0137H1.72414V13.1379Z" fill="#0B4870"/>
<path d="M2.58621 13.1379H1.72414V14.0137H2.58621V13.1379Z" fill="#0B4870"/>
<path d="M3.44827 13.1379H2.5862V14.0137H3.44827V13.1379Z" fill="#0B4870"/>
<path d="M4.31036 13.1379H3.44829V14.0137H4.31036V13.1379Z" fill="#0B4870"/>
<path d="M5.17242 13.1379H4.31035V14.0137H5.17242V13.1379Z" fill="#0B4870"/>
<path d="M6.89655 13.1379H6.03448V14.0137H6.89655V13.1379Z" fill="#0B4870"/>
<path d="M7.75863 13.1379H6.89656V14.0137H7.75863V13.1379Z" fill="#0B4870"/>
<path d="M8.62069 13.1379H7.75862V14.0137H8.62069V13.1379Z" fill="#0B4870"/>
<path d="M9.48277 13.1379H8.6207V14.0137H9.48277V13.1379Z" fill="#0B4870"/>
<path d="M11.2069 13.1379H10.3448V14.0137H11.2069V13.1379Z" fill="#0B4870"/>
<path d="M14.6552 13.1379H13.7931V14.0137H14.6552V13.1379Z" fill="#0B4870"/>
<path d="M15.5172 13.1379H14.6552V14.0137H15.5172V13.1379Z" fill="#0B4870"/>
<path d="M22.4138 13.1379H21.5517V14.0137H22.4138V13.1379Z" fill="#0B4870"/>
<path d="M24.1379 13.1379H23.2759V14.0137H24.1379V13.1379Z" fill="#0B4870"/>
<path d="M4.31036 14.0137H3.44829V14.8896H4.31036V14.0137Z" fill="#0B4870"/>
<path d="M6.03448 14.0137H5.17241V14.8896H6.03448V14.0137Z" fill="#0B4870"/>
<path d="M6.89655 14.0137H6.03448V14.8896H6.89655V14.0137Z" fill="#0B4870"/>
<path d="M7.75863 14.0137H6.89656V14.8896H7.75863V14.0137Z" fill="#0B4870"/>
<path d="M9.48277 14.0137H8.6207V14.8896H9.48277V14.0137Z" fill="#0B4870"/>
<path d="M10.3448 14.0137H9.48276V14.8896H10.3448V14.0137Z" fill="#0B4870"/>
<path d="M11.2069 14.0137H10.3448V14.8896H11.2069V14.0137Z" fill="#0B4870"/>
<path d="M12.069 14.0137H11.2069V14.8896H12.069V14.0137Z" fill="#0B4870"/>
<path d="M13.7931 14.0137H12.931V14.8896H13.7931V14.0137Z" fill="#0B4870"/>
<path d="M15.5172 14.0137H14.6552V14.8896H15.5172V14.0137Z" fill="#0B4870"/>
<path d="M18.1034 14.0137H17.2414V14.8896H18.1034V14.0137Z" fill="#0B4870"/>
<path d="M18.9655 14.0137H18.1034V14.8896H18.9655V14.0137Z" fill="#0B4870"/>
<path d="M20.6897 14.0137H19.8276V14.8896H20.6897V14.0137Z" fill="#0B4870"/>
<path d="M24.1379 14.0137H23.2759V14.8896H24.1379V14.0137Z" fill="#0B4870"/>
<path d="M1.72414 14.8896H0.862076V15.7655H1.72414V14.8896Z" fill="#0B4870"/>
<path d="M4.31036 14.8896H3.44829V15.7655H4.31036V14.8896Z" fill="#0B4870"/>
<path d="M5.17242 14.8896H4.31035V15.7655H5.17242V14.8896Z" fill="#0B4870"/>
<path d="M6.89655 14.8896H6.03448V15.7655H6.89655V14.8896Z" fill="#0B4870"/>
<path d="M10.3448 14.8896H9.48276V15.7655H10.3448V14.8896Z" fill="#0B4870"/>
<path d="M11.2069 14.8896H10.3448V15.7655H11.2069V14.8896Z" fill="#0B4870"/>
<path d="M12.069 14.8896H11.2069V15.7655H12.069V14.8896Z" fill="#0B4870"/>
<path d="M12.931 14.8896H12.069V15.7655H12.931V14.8896Z" fill="#0B4870"/>
<path d="M14.6552 14.8896H13.7931V15.7655H14.6552V14.8896Z" fill="#0B4870"/>
<path d="M19.8276 14.8896H18.9655V15.7655H19.8276V14.8896Z" fill="#0B4870"/>
<path d="M20.6897 14.8896H19.8276V15.7655H20.6897V14.8896Z" fill="#0B4870"/>
<path d="M22.4138 14.8896H21.5517V15.7655H22.4138V14.8896Z" fill="#0B4870"/>
<path d="M25 14.8896H24.1379V15.7655H25V14.8896Z" fill="#0B4870"/>
<path d="M0.862069 15.7655H0V16.6414H0.862069V15.7655Z" fill="#0B4870"/>
<path d="M2.58621 15.7655H1.72414V16.6414H2.58621V15.7655Z" fill="#0B4870"/>
<path d="M5.17242 15.7655H4.31035V16.6414H5.17242V15.7655Z" fill="#0B4870"/>
<path d="M6.03448 15.7655H5.17241V16.6414H6.03448V15.7655Z" fill="#0B4870"/>
<path d="M6.89655 15.7655H6.03448V16.6414H6.89655V15.7655Z" fill="#0B4870"/>
<path d="M7.75863 15.7655H6.89656V16.6414H7.75863V15.7655Z" fill="#0B4870"/>
<path d="M8.62069 15.7655H7.75862V16.6414H8.62069V15.7655Z" fill="#0B4870"/>
<path d="M9.48277 15.7655H8.6207V16.6414H9.48277V15.7655Z" fill="#0B4870"/>
<path d="M11.2069 15.7655H10.3448V16.6414H11.2069V15.7655Z" fill="#0B4870"/>
<path d="M12.931 15.7655H12.069V16.6414H12.931V15.7655Z" fill="#0B4870"/>
<path d="M15.5172 15.7655H14.6552V16.6414H15.5172V15.7655Z" fill="#0B4870"/>
<path d="M16.3793 15.7655H15.5172V16.6414H16.3793V15.7655Z" fill="#0B4870"/>
<path d="M18.9655 15.7655H18.1034V16.6414H18.9655V15.7655Z" fill="#0B4870"/>
<path d="M19.8276 15.7655H18.9655V16.6414H19.8276V15.7655Z" fill="#0B4870"/>
<path d="M20.6897 15.7655H19.8276V16.6414H20.6897V15.7655Z" fill="#0B4870"/>
<path d="M24.1379 15.7655H23.2759V16.6414H24.1379V15.7655Z" fill="#0B4870"/>
<path d="M25 15.7655H24.1379V16.6414H25V15.7655Z" fill="#0B4870"/>
<path d="M3.44827 16.6414H2.5862V17.5172H3.44827V16.6414Z" fill="#0B4870"/>
<path d="M4.31036 16.6414H3.44829V17.5172H4.31036V16.6414Z" fill="#0B4870"/>
<path d="M7.75863 16.6414H6.89656V17.5172H7.75863V16.6414Z" fill="#0B4870"/>
<path d="M8.62069 16.6414H7.75862V17.5172H8.62069V16.6414Z" fill="#0B4870"/>
<path d="M9.48277 16.6414H8.6207V17.5172H9.48277V16.6414Z" fill="#0B4870"/>
<path d="M12.931 16.6414H12.069V17.5172H12.931V16.6414Z" fill="#0B4870"/>
<path d="M15.5172 16.6414H14.6552V17.5172H15.5172V16.6414Z" fill="#0B4870"/>
<path d="M16.3793 16.6414H15.5172V17.5172H16.3793V16.6414Z" fill="#0B4870"/>
<path d="M17.2414 16.6414H16.3793V17.5172H17.2414V16.6414Z" fill="#0B4870"/>
<path d="M18.9655 16.6414H18.1034V17.5172H18.9655V16.6414Z" fill="#0B4870"/>
<path d="M19.8276 16.6414H18.9655V17.5172H19.8276V16.6414Z" fill="#0B4870"/>
<path d="M24.1379 16.6414H23.2759V17.5172H24.1379V16.6414Z" fill="#0B4870"/>
<path d="M25 16.6414H24.1379V17.5172H25V16.6414Z" fill="#0B4870"/>
<path d="M0.862069 17.5173H0V18.3931H0.862069V17.5173Z" fill="#0B4870"/>
<path d="M2.58621 17.5173H1.72414V18.3931H2.58621V17.5173Z" fill="#0B4870"/>
<path d="M3.44827 17.5173H2.5862V18.3931H3.44827V17.5173Z" fill="#0B4870"/>
<path d="M4.31036 17.5173H3.44829V18.3931H4.31036V17.5173Z" fill="#0B4870"/>
<path d="M5.17242 17.5173H4.31035V18.3931H5.17242V17.5173Z" fill="#0B4870"/>
<path d="M6.03448 17.5173H5.17241V18.3931H6.03448V17.5173Z" fill="#0B4870"/>
<path d="M6.89655 17.5173H6.03448V18.3931H6.89655V17.5173Z" fill="#0B4870"/>
<path d="M7.75863 17.5173H6.89656V18.3931H7.75863V17.5173Z" fill="#0B4870"/>
<path d="M8.62069 17.5173H7.75862V18.3931H8.62069V17.5173Z" fill="#0B4870"/>
<path d="M9.48277 17.5173H8.6207V18.3931H9.48277V17.5173Z" fill="#0B4870"/>
<path d="M13.7931 17.5173H12.931V18.3931H13.7931V17.5173Z" fill="#0B4870"/>
<path d="M14.6552 17.5173H13.7931V18.3931H14.6552V17.5173Z" fill="#0B4870"/>
<path d="M18.1034 17.5173H17.2414V18.3931H18.1034V17.5173Z" fill="#0B4870"/>
<path d="M18.9655 17.5173H18.1034V18.3931H18.9655V17.5173Z" fill="#0B4870"/>
<path d="M19.8276 17.5173H18.9655V18.3931H19.8276V17.5173Z" fill="#0B4870"/>
<path d="M20.6897 17.5173H19.8276V18.3931H20.6897V17.5173Z" fill="#0B4870"/>
<path d="M21.5517 17.5173H20.6897V18.3931H21.5517V17.5173Z" fill="#0B4870"/>
<path d="M23.2759 17.5173H22.4138V18.3931H23.2759V17.5173Z" fill="#0B4870"/>
<path d="M7.75863 18.3931H6.89656V19.269H7.75863V18.3931Z" fill="#0B4870"/>
<path d="M10.3448 18.3931H9.48276V19.269H10.3448V18.3931Z" fill="#0B4870"/>
<path d="M11.2069 18.3931H10.3448V19.269H11.2069V18.3931Z" fill="#0B4870"/>
<path d="M12.931 18.3931H12.069V19.269H12.931V18.3931Z" fill="#0B4870"/>
<path d="M14.6552 18.3931H13.7931V19.269H14.6552V18.3931Z" fill="#0B4870"/>
<path d="M17.2414 18.3931H16.3793V19.269H17.2414V18.3931Z" fill="#0B4870"/>
<path d="M18.1034 18.3931H17.2414V19.269H18.1034V18.3931Z" fill="#0B4870"/>
<path d="M21.5517 18.3931H20.6897V19.269H21.5517V18.3931Z" fill="#0B4870"/>
<path d="M23.2759 18.3931H22.4138V19.269H23.2759V18.3931Z" fill="#0B4870"/>
<path d="M24.1379 18.3931H23.2759V19.269H24.1379V18.3931Z" fill="#0B4870"/>
<path d="M25 18.3931H24.1379V19.269H25V18.3931Z" fill="#0B4870"/>
<path d="M8.62069 19.269H7.75862V20.1448H8.62069V19.269Z" fill="#0B4870"/>
<path d="M9.48277 19.269H8.6207V20.1448H9.48277V19.269Z" fill="#0B4870"/>
<path d="M10.3448 19.269H9.48276V20.1448H10.3448V19.269Z" fill="#0B4870"/>
<path d="M14.6552 19.269H13.7931V20.1448H14.6552V19.269Z" fill="#0B4870"/>
<path d="M15.5172 19.269H14.6552V20.1448H15.5172V19.269Z" fill="#0B4870"/>
<path d="M18.1034 19.269H17.2414V20.1448H18.1034V19.269Z" fill="#0B4870"/>
<path d="M19.8276 19.269H18.9655V20.1448H19.8276V19.269Z" fill="#0B4870"/>
<path d="M21.5517 19.269H20.6897V20.1448H21.5517V19.269Z" fill="#0B4870"/>
<path d="M24.1379 19.269H23.2759V20.1448H24.1379V19.269Z" fill="#0B4870"/>
<path d="M7.75863 20.1448H6.89656V21.0207H7.75863V20.1448Z" fill="#0B4870"/>
<path d="M11.2069 20.1448H10.3448V21.0207H11.2069V20.1448Z" fill="#0B4870"/>
<path d="M12.931 20.1448H12.069V21.0207H12.931V20.1448Z" fill="#0B4870"/>
<path d="M13.7931 20.1448H12.931V21.0207H13.7931V20.1448Z" fill="#0B4870"/>
<path d="M14.6552 20.1448H13.7931V21.0207H14.6552V20.1448Z" fill="#0B4870"/>
<path d="M16.3793 20.1448H15.5172V21.0207H16.3793V20.1448Z" fill="#0B4870"/>
<path d="M18.1034 20.1448H17.2414V21.0207H18.1034V20.1448Z" fill="#0B4870"/>
<path d="M21.5517 20.1448H20.6897V21.0207H21.5517V20.1448Z" fill="#0B4870"/>
<path d="M22.4138 20.1448H21.5517V21.0207H22.4138V20.1448Z" fill="#0B4870"/>
<path d="M23.2759 20.1448H22.4138V21.0207H23.2759V20.1448Z" fill="#0B4870"/>
<path d="M8.62069 21.0208H7.75862V21.8966H8.62069V21.0208Z" fill="#0B4870"/>
<path d="M11.2069 21.0208H10.3448V21.8966H11.2069V21.0208Z" fill="#0B4870"/>
<path d="M13.7931 21.0208H12.931V21.8966H13.7931V21.0208Z" fill="#0B4870"/>
<path d="M14.6552 21.0208H13.7931V21.8966H14.6552V21.0208Z" fill="#0B4870"/>
<path d="M15.5172 21.0208H14.6552V21.8966H15.5172V21.0208Z" fill="#0B4870"/>
<path d="M18.1034 21.0208H17.2414V21.8966H18.1034V21.0208Z" fill="#0B4870"/>
<path d="M18.9655 21.0208H18.1034V21.8966H18.9655V21.0208Z" fill="#0B4870"/>
<path d="M19.8276 21.0208H18.9655V21.8966H19.8276V21.0208Z" fill="#0B4870"/>
<path d="M20.6897 21.0208H19.8276V21.8966H20.6897V21.0208Z" fill="#0B4870"/>
<path d="M21.5517 21.0208H20.6897V21.8966H21.5517V21.0208Z" fill="#0B4870"/>
<path d="M24.1379 21.0208H23.2759V21.8966H24.1379V21.0208Z" fill="#0B4870"/>
<path d="M25 21.0208H24.1379V21.8966H25V21.0208Z" fill="#0B4870"/>
<path d="M7.75863 21.8965H6.89656V22.7723H7.75863V21.8965Z" fill="#0B4870"/>
<path d="M12.069 21.8965H11.2069V22.7723H12.069V21.8965Z" fill="#0B4870"/>
<path d="M17.2414 21.8965H16.3793V22.7723H17.2414V21.8965Z" fill="#0B4870"/>
<path d="M19.8276 21.8965H18.9655V22.7723H19.8276V21.8965Z" fill="#0B4870"/>
<path d="M21.5517 21.8965H20.6897V22.7723H21.5517V21.8965Z" fill="#0B4870"/>
<path d="M22.4138 21.8965H21.5517V22.7723H22.4138V21.8965Z" fill="#0B4870"/>
<path d="M23.2759 21.8965H22.4138V22.7723H23.2759V21.8965Z" fill="#0B4870"/>
<path d="M24.1379 21.8965H23.2759V22.7723H24.1379V21.8965Z" fill="#0B4870"/>
<path d="M8.62069 22.7724H7.75862V23.6483H8.62069V22.7724Z" fill="#0B4870"/>
<path d="M10.3448 22.7724H9.48276V23.6483H10.3448V22.7724Z" fill="#0B4870"/>
<path d="M11.2069 22.7724H10.3448V23.6483H11.2069V22.7724Z" fill="#0B4870"/>
<path d="M12.069 22.7724H11.2069V23.6483H12.069V22.7724Z" fill="#0B4870"/>
<path d="M12.931 22.7724H12.069V23.6483H12.931V22.7724Z" fill="#0B4870"/>
<path d="M15.5172 22.7724H14.6552V23.6483H15.5172V22.7724Z" fill="#0B4870"/>
<path d="M18.1034 22.7724H17.2414V23.6483H18.1034V22.7724Z" fill="#0B4870"/>
<path d="M18.9655 22.7724H18.1034V23.6483H18.9655V22.7724Z" fill="#0B4870"/>
<path d="M21.5517 22.7724H20.6897V23.6483H21.5517V22.7724Z" fill="#0B4870"/>
<path d="M22.4138 22.7724H21.5517V23.6483H22.4138V22.7724Z" fill="#0B4870"/>
<path d="M23.2759 22.7724H22.4138V23.6483H23.2759V22.7724Z" fill="#0B4870"/>
<path d="M25 22.7724H24.1379V23.6483H25V22.7724Z" fill="#0B4870"/>
<path d="M12.069 23.6483H11.2069V24.5241H12.069V23.6483Z" fill="#0B4870"/>
<path d="M14.6552 23.6483H13.7931V24.5241H14.6552V23.6483Z" fill="#0B4870"/>
<path d="M15.5172 23.6483H14.6552V24.5241H15.5172V23.6483Z" fill="#0B4870"/>
<path d="M16.3793 23.6483H15.5172V24.5241H16.3793V23.6483Z" fill="#0B4870"/>
<path d="M17.2414 23.6483H16.3793V24.5241H17.2414V23.6483Z" fill="#0B4870"/>
<path d="M18.1034 23.6483H17.2414V24.5241H18.1034V23.6483Z" fill="#0B4870"/>
<path d="M18.9655 23.6483H18.1034V24.5241H18.9655V23.6483Z" fill="#0B4870"/>
<path d="M21.5517 23.6483H20.6897V24.5241H21.5517V23.6483Z" fill="#0B4870"/>
<path d="M24.1379 23.6483H23.2759V24.5241H24.1379V23.6483Z" fill="#0B4870"/>
<path d="M7.75863 24.5242H6.89656V25.4H7.75863V24.5242Z" fill="#0B4870"/>
<path d="M8.62069 24.5242H7.75862V25.4H8.62069V24.5242Z" fill="#0B4870"/>
<path d="M9.48277 24.5242H8.6207V25.4H9.48277V24.5242Z" fill="#0B4870"/>
<path d="M12.931 24.5242H12.069V25.4H12.931V24.5242Z" fill="#0B4870"/>
<path d="M13.7931 24.5242H12.931V25.4H13.7931V24.5242Z" fill="#0B4870"/>
<path d="M15.5172 24.5242H14.6552V25.4H15.5172V24.5242Z" fill="#0B4870"/>
<path d="M16.3793 24.5242H15.5172V25.4H16.3793V24.5242Z" fill="#0B4870"/>
<path d="M18.1034 24.5242H17.2414V25.4H18.1034V24.5242Z" fill="#0B4870"/>
<path d="M19.8276 24.5242H18.9655V25.4H19.8276V24.5242Z" fill="#0B4870"/>
<path d="M20.6897 24.5242H19.8276V25.4H20.6897V24.5242Z" fill="#0B4870"/>
<path d="M21.5517 24.5242H20.6897V25.4H21.5517V24.5242Z" fill="#0B4870"/>
<path d="M24.1379 24.5242H23.2759V25.4H24.1379V24.5242Z" fill="#0B4870"/>
<path d="M5.12931 0H0.905172H0V0.919655V5.21138V6.13103H0.905172H5.12931H6.03448V5.21138V0.919655V0H5.12931ZM5.12931 5.21138H0.905172V0.919655H5.12931V5.21138Z" fill="#0B4870"/>
<path d="M24.0948 0H19.8707H18.9655V0.919655V5.21138V6.13103H19.8707H24.0948H25V5.21138V0.919655V0H24.0948ZM24.0948 5.21138H19.8707V0.919655H24.0948V5.21138Z" fill="#0B4870"/>
<path d="M5.12931 19.269H0.905172H0V20.1886V24.4804V25.4H0.905172H5.12931H6.03448V24.4804V20.1886V19.269H5.12931ZM5.12931 24.4804H0.905172V20.1886H5.12931V24.4804Z" fill="#0B4870"/>
<path d="M4.31034 1.75177H1.72414V4.37936H4.31034V1.75177Z" fill="#0B4870"/>
<path d="M23.2759 1.75177H20.6897V4.37936H23.2759V1.75177Z" fill="#0B4870"/>
<path d="M4.31034 21.0208H1.72414V23.6483H4.31034V21.0208Z" fill="#0B4870"/>
</svg>
