<svg width="33" height="33" viewBox="0 0 33 33" fill="none" xmlns="http://www.w3.org/2000/svg">
<mask id="path-1-inside-1" fill="white">
<path d="M5.5 2.80798H12.375C13.8938 2.80798 15.125 4.0393 15.125 5.55798V12.433C15.125 13.9518 13.8938 15.183 12.375 15.183H5.5C3.98117 15.183 2.75 13.9518 2.75 12.433V5.55798C2.75 4.0393 3.98117 2.80798 5.5 2.80798ZM5.5 4.87048C5.40972 4.87048 5.32032 4.88827 5.2369 4.92282C5.15349 4.95737 5.0777 5.00801 5.01386 5.07185C4.95002 5.13569 4.89938 5.21148 4.86483 5.29489C4.83028 5.3783 4.8125 5.4677 4.8125 5.55798V12.433C4.8125 12.5233 4.83028 12.6127 4.86483 12.6961C4.89938 12.7795 4.95002 12.8553 5.01386 12.9191C5.0777 12.983 5.15349 13.0336 5.2369 13.0682C5.32032 13.1027 5.40972 13.1205 5.5 13.1205H12.375C12.5573 13.1205 12.7322 13.0481 12.8611 12.9191C12.9901 12.7902 13.0625 12.6153 13.0625 12.433V5.55798C13.0625 5.37565 12.9901 5.20078 12.8611 5.07185C12.7322 4.94292 12.5573 4.87048 12.375 4.87048H5.5ZM5.5 17.933H12.375C13.8938 17.933 15.125 19.1643 15.125 20.683V27.558C15.125 29.0768 13.8938 30.308 12.375 30.308H5.5C3.98117 30.308 2.75 29.0768 2.75 27.558V20.683C2.75 19.1643 3.98117 17.933 5.5 17.933ZM5.5 19.9955C5.40972 19.9955 5.32032 20.0133 5.2369 20.0478C5.15349 20.0824 5.0777 20.133 5.01386 20.1968C4.95002 20.2607 4.89938 20.3365 4.86483 20.4199C4.83028 20.5033 4.8125 20.5927 4.8125 20.683V27.558C4.8125 27.6483 4.83028 27.7377 4.86483 27.8211C4.89938 27.9045 4.95002 27.9803 5.01386 28.0441C5.0777 28.108 5.15349 28.1586 5.2369 28.1932C5.32032 28.2277 5.40972 28.2455 5.5 28.2455H12.375C12.5573 28.2455 12.7322 28.1731 12.8611 28.0441C12.9901 27.9152 13.0625 27.7403 13.0625 27.558V20.683C13.0625 20.5927 13.0447 20.5033 13.0102 20.4199C12.9756 20.3365 12.925 20.2607 12.8611 20.1968C12.7973 20.133 12.7215 20.0824 12.6381 20.0478C12.5547 20.0133 12.4653 19.9955 12.375 19.9955H5.5ZM30.25 5.55798V12.433C30.25 13.9518 29.0188 15.183 27.5 15.183H20.625C19.1062 15.183 17.875 13.9518 17.875 12.433V5.55798C17.875 4.0393 19.1062 2.80798 20.625 2.80798H27.5C29.0188 2.80798 30.25 4.0393 30.25 5.55798ZM28.1875 5.55798C28.1875 5.4677 28.1697 5.3783 28.1352 5.29489C28.1006 5.21148 28.05 5.13569 27.9861 5.07185C27.9223 5.00801 27.8465 4.95737 27.7631 4.92282C27.6797 4.88827 27.5903 4.87048 27.5 4.87048H20.625C20.4427 4.87048 20.2678 4.94292 20.1389 5.07185C20.0099 5.20078 19.9375 5.37565 19.9375 5.55798V12.433C19.9375 12.6153 20.0099 12.7902 20.1389 12.9191C20.2678 13.0481 20.4427 13.1205 20.625 13.1205H27.5C27.5903 13.1205 27.6797 13.1027 27.7631 13.0682C27.8465 13.0336 27.9223 12.983 27.9861 12.9191C28.05 12.8553 28.1006 12.7795 28.1352 12.6961C28.1697 12.6127 28.1875 12.5233 28.1875 12.433V5.55798ZM20.625 17.933H27.5C29.0188 17.933 30.25 19.1643 30.25 20.683V27.558C30.25 29.0768 29.0188 30.308 27.5 30.308H20.625C19.1062 30.308 17.875 29.0768 17.875 27.558V20.683C17.875 19.1643 19.1062 17.933 20.625 17.933ZM20.625 19.9955C20.5347 19.9955 20.4453 20.0133 20.3619 20.0478C20.2785 20.0824 20.2027 20.133 20.1389 20.1968C20.075 20.2607 20.0244 20.3365 19.9898 20.4199C19.9553 20.5033 19.9375 20.5927 19.9375 20.683V27.558C19.9375 27.7403 20.0099 27.9152 20.1389 28.0441C20.2678 28.1731 20.4427 28.2455 20.625 28.2455H27.5C27.5903 28.2455 27.6797 28.2277 27.7631 28.1932C27.8465 28.1586 27.9223 28.108 27.9861 28.0441C28.05 27.9803 28.1006 27.9045 28.1352 27.8211C28.1697 27.7377 28.1875 27.6483 28.1875 27.558V20.683C28.1875 20.5927 28.1697 20.5033 28.1352 20.4199C28.1006 20.3365 28.05 20.2607 27.9861 20.1968C27.9223 20.133 27.8465 20.0824 27.7631 20.0478C27.6797 20.0133 27.5903 19.9955 27.5 19.9955H20.625Z"/>
</mask>
<path d="M5.5 2.80798H12.375C13.8938 2.80798 15.125 4.0393 15.125 5.55798V12.433C15.125 13.9518 13.8938 15.183 12.375 15.183H5.5C3.98117 15.183 2.75 13.9518 2.75 12.433V5.55798C2.75 4.0393 3.98117 2.80798 5.5 2.80798ZM5.5 4.87048C5.40972 4.87048 5.32032 4.88827 5.2369 4.92282C5.15349 4.95737 5.0777 5.00801 5.01386 5.07185C4.95002 5.13569 4.89938 5.21148 4.86483 5.29489C4.83028 5.3783 4.8125 5.4677 4.8125 5.55798V12.433C4.8125 12.5233 4.83028 12.6127 4.86483 12.6961C4.89938 12.7795 4.95002 12.8553 5.01386 12.9191C5.0777 12.983 5.15349 13.0336 5.2369 13.0682C5.32032 13.1027 5.40972 13.1205 5.5 13.1205H12.375C12.5573 13.1205 12.7322 13.0481 12.8611 12.9191C12.9901 12.7902 13.0625 12.6153 13.0625 12.433V5.55798C13.0625 5.37565 12.9901 5.20078 12.8611 5.07185C12.7322 4.94292 12.5573 4.87048 12.375 4.87048H5.5ZM5.5 17.933H12.375C13.8938 17.933 15.125 19.1643 15.125 20.683V27.558C15.125 29.0768 13.8938 30.308 12.375 30.308H5.5C3.98117 30.308 2.75 29.0768 2.75 27.558V20.683C2.75 19.1643 3.98117 17.933 5.5 17.933ZM5.5 19.9955C5.40972 19.9955 5.32032 20.0133 5.2369 20.0478C5.15349 20.0824 5.0777 20.133 5.01386 20.1968C4.95002 20.2607 4.89938 20.3365 4.86483 20.4199C4.83028 20.5033 4.8125 20.5927 4.8125 20.683V27.558C4.8125 27.6483 4.83028 27.7377 4.86483 27.8211C4.89938 27.9045 4.95002 27.9803 5.01386 28.0441C5.0777 28.108 5.15349 28.1586 5.2369 28.1932C5.32032 28.2277 5.40972 28.2455 5.5 28.2455H12.375C12.5573 28.2455 12.7322 28.1731 12.8611 28.0441C12.9901 27.9152 13.0625 27.7403 13.0625 27.558V20.683C13.0625 20.5927 13.0447 20.5033 13.0102 20.4199C12.9756 20.3365 12.925 20.2607 12.8611 20.1968C12.7973 20.133 12.7215 20.0824 12.6381 20.0478C12.5547 20.0133 12.4653 19.9955 12.375 19.9955H5.5ZM30.25 5.55798V12.433C30.25 13.9518 29.0188 15.183 27.5 15.183H20.625C19.1062 15.183 17.875 13.9518 17.875 12.433V5.55798C17.875 4.0393 19.1062 2.80798 20.625 2.80798H27.5C29.0188 2.80798 30.25 4.0393 30.25 5.55798ZM28.1875 5.55798C28.1875 5.4677 28.1697 5.3783 28.1352 5.29489C28.1006 5.21148 28.05 5.13569 27.9861 5.07185C27.9223 5.00801 27.8465 4.95737 27.7631 4.92282C27.6797 4.88827 27.5903 4.87048 27.5 4.87048H20.625C20.4427 4.87048 20.2678 4.94292 20.1389 5.07185C20.0099 5.20078 19.9375 5.37565 19.9375 5.55798V12.433C19.9375 12.6153 20.0099 12.7902 20.1389 12.9191C20.2678 13.0481 20.4427 13.1205 20.625 13.1205H27.5C27.5903 13.1205 27.6797 13.1027 27.7631 13.0682C27.8465 13.0336 27.9223 12.983 27.9861 12.9191C28.05 12.8553 28.1006 12.7795 28.1352 12.6961C28.1697 12.6127 28.1875 12.5233 28.1875 12.433V5.55798ZM20.625 17.933H27.5C29.0188 17.933 30.25 19.1643 30.25 20.683V27.558C30.25 29.0768 29.0188 30.308 27.5 30.308H20.625C19.1062 30.308 17.875 29.0768 17.875 27.558V20.683C17.875 19.1643 19.1062 17.933 20.625 17.933ZM20.625 19.9955C20.5347 19.9955 20.4453 20.0133 20.3619 20.0478C20.2785 20.0824 20.2027 20.133 20.1389 20.1968C20.075 20.2607 20.0244 20.3365 19.9898 20.4199C19.9553 20.5033 19.9375 20.5927 19.9375 20.683V27.558C19.9375 27.7403 20.0099 27.9152 20.1389 28.0441C20.2678 28.1731 20.4427 28.2455 20.625 28.2455H27.5C27.5903 28.2455 27.6797 28.2277 27.7631 28.1932C27.8465 28.1586 27.9223 28.108 27.9861 28.0441C28.05 27.9803 28.1006 27.9045 28.1352 27.8211C28.1697 27.7377 28.1875 27.6483 28.1875 27.558V20.683C28.1875 20.5927 28.1697 20.5033 28.1352 20.4199C28.1006 20.3365 28.05 20.2607 27.9861 20.1968C27.9223 20.133 27.8465 20.0824 27.7631 20.0478C27.6797 20.0133 27.5903 19.9955 27.5 19.9955H20.625Z" fill="#0B4870" stroke="#0B4870" stroke-width="0.390625" mask="url(#path-1-inside-1)"/>
</svg>
