<svg width="22" height="22" viewBox="0 0 22 22" fill="none" xmlns="http://www.w3.org/2000/svg">
<path d="M11 0C4.92433 0 0 4.92433 0 11C0 17.0757 4.92433 22 11 22C17.0757 22 22 17.0757 22 11C22 4.92433 17.0757 0 11 0ZM10.8607 17.4579C10.6139 17.4579 10.3772 17.3599 10.2028 17.1854C10.0283 17.0109 9.93025 16.7743 9.93025 16.5275C9.93025 16.2807 10.0283 16.0441 10.2028 15.8696C10.3772 15.6951 10.6139 15.5971 10.8607 15.5971C11.1074 15.5971 11.3441 15.6951 11.5186 15.8696C11.6931 16.0441 11.7911 16.2807 11.7911 16.5275C11.7911 16.7743 11.6931 17.0109 11.5186 17.1854C11.3441 17.3599 11.1074 17.4579 10.8607 17.4579ZM14.8518 8.40125C14.7987 9.39492 14.4934 10.1796 12.9681 11.7049C12.1944 12.4786 11.7067 13.0579 11.6572 13.5676C11.6369 13.7718 11.5364 13.9596 11.3776 14.0896C11.2188 14.2197 11.0149 14.2813 10.8107 14.261C10.6065 14.2407 10.4187 14.1401 10.2887 13.9814C10.1586 13.8226 10.0969 13.6187 10.1172 13.4145C10.2227 12.342 11.0082 11.4767 11.8745 10.6113C13.2605 9.22533 13.2834 8.78533 13.3073 8.31875C13.3199 8.04551 13.276 7.77261 13.1783 7.5171C13.0807 7.26159 12.9314 7.02896 12.7398 6.83375C12.5142 6.59865 12.2434 6.41166 11.9436 6.28405C11.6438 6.15644 11.3212 6.09086 10.9954 6.09125H10.9917C10.3802 6.09343 9.79437 6.33765 9.36236 6.77052C8.93035 7.20339 8.6873 7.78969 8.68633 8.40125C8.68633 8.60644 8.60482 8.80322 8.45973 8.94831C8.31464 9.09341 8.11786 9.17492 7.91267 9.17492C7.70748 9.17492 7.51069 9.09341 7.3656 8.94831C7.22051 8.80322 7.139 8.60644 7.139 8.40125C7.13736 7.89516 7.23599 7.39377 7.42919 6.92601C7.6224 6.45825 7.90636 6.03341 8.26467 5.676C8.62116 5.31678 9.04531 5.03177 9.51261 4.83746C9.9799 4.64315 10.4811 4.54338 10.9872 4.54392C11.5243 4.54299 12.0559 4.65104 12.55 4.86155C13.0442 5.07205 13.4904 5.38062 13.8618 5.76858C14.1993 6.11535 14.4614 6.52813 14.6318 6.98102C14.8022 7.43391 14.8771 7.91712 14.8518 8.40033V8.40125Z" fill="#0B4870"/>
</svg>
