<svg width="22" height="22" viewBox="0 0 22 22" fill="none" xmlns="http://www.w3.org/2000/svg">
<g clip-path="url(#clip0)">
<path d="M20.0593 11C20.0604 10.3899 20.2465 9.79449 20.593 9.29232C20.9395 8.79014 21.43 8.40481 22 8.18714C21.7333 7.14064 21.3179 6.1378 20.7664 5.20929C20.2101 5.45814 19.5912 5.53219 18.9919 5.42163C18.3925 5.31108 17.8408 5.02113 17.4098 4.59015C16.9789 4.15918 16.6889 3.60751 16.5784 3.00813C16.4678 2.40876 16.5419 1.78994 16.7907 1.23357C15.8641 0.678393 14.8607 0.262741 13.8129 0C13.5943 0.569326 13.2087 1.05929 12.7067 1.40562C12.2048 1.75195 11.6098 1.93847 11 1.94071C10.3899 1.93955 9.79449 1.75346 9.29232 1.40699C8.79014 1.06052 8.40481 0.569949 8.18714 0C7.13934 0.262741 6.13595 0.678393 5.20929 1.23357C5.45814 1.78994 5.53219 2.40876 5.42163 3.00813C5.31108 3.60751 5.02113 4.15918 4.59015 4.59015C4.15918 5.02113 3.60751 5.31108 3.00813 5.42163C2.40876 5.53219 1.78994 5.45814 1.23357 5.20929C0.678393 6.13595 0.262741 7.13934 0 8.18714C0.569326 8.40573 1.05929 8.7913 1.40562 9.29327C1.75195 9.79523 1.93847 10.3902 1.94071 11C1.93955 11.6101 1.75346 12.2055 1.40699 12.7077C1.06052 13.2099 0.569949 13.5952 0 13.8129C0.262741 14.8607 0.678393 15.8641 1.23357 16.7907C1.78994 16.5419 2.40876 16.4678 3.00813 16.5784C3.60751 16.6889 4.15918 16.9789 4.59015 17.4098C5.02113 17.8408 5.31108 18.3925 5.42163 18.9919C5.53219 19.5912 5.45814 20.2101 5.20929 20.7664C6.1378 21.3179 7.14064 21.7333 8.18714 22C8.40401 21.4296 8.78917 20.9386 9.29154 20.5921C9.79391 20.2457 10.3897 20.0601 11 20.0601C11.6103 20.0601 12.2061 20.2457 12.7085 20.5921C13.2108 20.9386 13.596 21.4296 13.8129 22C14.8594 21.7333 15.8622 21.3179 16.7907 20.7664C16.5419 20.2101 16.4678 19.5912 16.5784 18.9919C16.6889 18.3925 16.9789 17.8408 17.4098 17.4098C17.8408 16.9789 18.3925 16.6889 18.9919 16.5784C19.5912 16.4678 20.2101 16.5419 20.7664 16.7907C21.3179 15.8622 21.7333 14.8594 22 13.8129C21.43 13.5952 20.9395 13.2099 20.593 12.7077C20.2465 12.2055 20.0604 11.6101 20.0593 11ZM11 14.0171C10.4033 14.0171 9.81993 13.8402 9.32376 13.5087C8.8276 13.1771 8.44088 12.7059 8.21252 12.1546C7.98416 11.6033 7.92441 10.9967 8.04083 10.4114C8.15725 9.82612 8.4446 9.28851 8.86656 8.86656C9.28851 8.4446 9.82612 8.15725 10.4114 8.04083C10.9967 7.92441 11.6033 7.98416 12.1546 8.21252C12.7059 8.44088 13.1771 8.8276 13.5087 9.32376C13.8402 9.81993 14.0171 10.4033 14.0171 11C14.0171 11.3962 13.9391 11.7886 13.7875 12.1546C13.6359 12.5207 13.4136 12.8533 13.1334 13.1334C12.8533 13.4136 12.5207 13.6359 12.1546 13.7875C11.7886 13.9391 11.3962 14.0171 11 14.0171Z" fill="#0B4870"/>
</g>
<defs>
<clipPath id="clip0">
<rect width="22" height="22" fill="white"/>
</clipPath>
</defs>
</svg>
