<svg width="22" height="22" viewBox="0 0 22 22" fill="none" xmlns="http://www.w3.org/2000/svg">
<path d="M21.5895 10.0796L15.1985 1.96532C14.4982 1.03765 13.2515 1.65732 13.2515 2.95532V6.23698H6.91183C6.27749 6.23698 5.76416 6.87498 5.76416 7.65965V14.41C5.76416 15.1983 6.27749 15.8326 6.91183 15.8326H13.3028V19.1143C13.3028 20.3536 14.5495 20.9733 15.2498 20.1043L21.6408 12.056C22.0368 11.5023 22.0368 10.637 21.5895 10.0796Z" fill="#0B4870"/>
<path d="M9.5223 21.8753H1.53263C0.700297 21.8753 0.0292969 21.2007 0.0292969 20.372V1.66465C0.0292969 0.832316 0.703964 0.161316 1.53263 0.161316H9.5223C10.3546 0.161316 11.0256 0.835983 11.0256 1.66465C11.0256 2.49332 10.351 3.16798 9.5223 3.16798H3.03597V18.8687H9.5223C10.3546 18.8687 11.0256 19.5433 11.0256 20.372C11.0256 21.2007 10.3546 21.8753 9.5223 21.8753Z" fill="#0B4870"/>
</svg>
