<svg width="33" height="33" viewBox="0 0 33 33" fill="none" xmlns="http://www.w3.org/2000/svg">
<path d="M20.526 16.5002C21.5509 15.6727 22.2939 14.5477 22.6528 13.2802C23.0117 12.0128 22.9688 10.6652 22.5299 9.42319C22.0911 8.18115 21.2779 7.10575 20.2024 6.34511C19.1269 5.58448 17.842 5.17603 16.5248 5.17603C15.2075 5.17603 13.9226 5.58448 12.8471 6.34511C11.7716 7.10575 10.9584 8.18115 10.5196 9.42319C10.0807 10.6652 10.0378 12.0128 10.3967 13.2802C10.7556 14.5477 11.4986 15.6727 12.5235 16.5002C10.2899 17.3193 8.36363 18.8081 7.00806 20.7631C5.6525 22.7182 4.93373 25.0442 4.95001 27.4232V28.4792H28.1655V27.4232C28.1769 25.0363 27.4485 22.7045 26.0804 20.7485C24.7124 18.7925 22.772 17.3084 20.526 16.5002ZM14.85 18.0512H18.15C20.1818 18.3844 22.05 19.3694 23.4728 20.8576C24.8956 22.3459 25.7956 24.2565 26.037 26.3012H7.07851C7.29277 24.2652 8.16897 22.3557 9.57275 20.8654C10.9765 19.3752 12.8304 18.3866 14.85 18.0512ZM12.309 11.5502C12.309 10.7134 12.5576 9.89545 13.0232 9.20012C13.4888 8.50479 14.1505 7.96343 14.9243 7.64472C15.698 7.326 16.549 7.2443 17.3693 7.40998C18.1895 7.57566 18.9421 7.98124 19.5315 8.57529C20.1209 9.16933 20.5206 9.92506 20.6798 10.7466C20.8391 11.5681 20.7507 12.4185 20.4259 13.1897C20.1011 13.9609 19.5546 14.6183 18.8557 15.0785C18.1567 15.5386 17.3368 15.7808 16.5 15.7742C15.9475 15.7721 15.4008 15.6611 14.8911 15.4477C14.3815 15.2342 13.9188 14.9225 13.5297 14.5302C13.1405 14.138 12.8324 13.673 12.623 13.1616C12.4135 12.6503 12.3068 12.1028 12.309 11.5502Z" fill="#0B4870"/>
<path d="M32.5875 24.222V25.0635H28.6935C28.5987 24.4986 28.4439 23.9455 28.2315 23.4135H30.8715C30.724 22.0888 30.1994 20.8342 29.36 19.7988C28.5206 18.7634 27.4016 17.9907 26.136 17.5725H26.0535C25.5719 16.9581 25.0179 16.4041 24.4035 15.9225L23.991 15.5925L24.5025 15.477C25.2685 15.3397 25.9543 14.9181 26.4225 14.2966C26.8908 13.6751 27.1069 12.8996 27.0276 12.1255C26.9483 11.3514 26.5795 10.6358 25.9949 10.1222C25.4104 9.60849 24.6534 9.33465 23.8755 9.35551H23.2815V9.10801C23.1897 8.73162 23.0569 8.36643 22.8855 8.01901L22.737 7.73851H23.067C23.3559 7.68826 23.6483 7.66068 23.9415 7.65601C24.9189 7.65677 25.8725 7.95788 26.6731 8.51856C27.4738 9.07924 28.0827 9.87241 28.4176 10.7907C28.7525 11.7089 28.7972 12.7079 28.5455 13.6524C28.2938 14.5969 27.7579 15.4412 27.0105 16.071C28.6625 16.6957 30.083 17.8122 31.0804 19.2698C32.0777 20.7274 32.6037 22.4559 32.5875 24.222ZM0.412501 24.222V25.0635H4.3065C4.40125 24.4986 4.55613 23.9455 4.7685 23.4135H2.1285C2.27597 22.0888 2.80058 20.8342 3.64 19.7988C4.47943 18.7634 5.5984 17.9907 6.864 17.5725C7.34562 16.9581 7.89962 16.4041 8.514 15.9225L8.9265 15.5925L8.415 15.477C7.64905 15.3397 6.96324 14.9181 6.49499 14.2966C6.02673 13.6751 5.81059 12.8996 5.88988 12.1255C5.96917 11.3514 6.33803 10.6358 6.92256 10.1222C7.50709 9.60849 8.26412 9.33465 9.042 9.35551H9.636V9.10801C9.72777 8.73162 9.86057 8.36643 10.032 8.01901L10.1805 7.73851H9.8505C9.5616 7.68826 9.26921 7.66068 8.976 7.65601C7.99857 7.65677 7.04499 7.95788 6.24437 8.51856C5.44374 9.07924 4.83475 9.87241 4.49986 10.7907C4.16496 11.7089 4.12034 12.7079 4.37203 13.6524C4.62371 14.5969 5.15956 15.4412 5.907 16.071C4.27044 16.709 2.86753 17.8312 1.88572 19.2877C0.903906 20.7442 0.389944 22.4656 0.412501 24.222Z" fill="#0B4870"/>
</svg>
